<?xml version="1.0" encoding="utf-8"?>
<!-- Generator: Adobe Illustrator 23.0.1, SVG Export Plug-In . SVG Version: 6.00 Build 0)  -->
<svg version="1.1" id="Layer_1" xmlns="http://www.w3.org/2000/svg" xmlns:xlink="http://www.w3.org/1999/xlink" x="0px" y="0px"
	 viewBox="0 0 1000 1000" style="enable-background:new 0 0 1000 1000;" xml:space="preserve">
<style type="text/css">
	.st0{fill:#EF6043;}
</style>
<g>
	<path class="st0" d="M238.43,365.53c-13.76-13.69-27.49-27.05-40.88-40.75c-16.66-17.04-16.65-43.82-0.29-60.96
		c16.85-17.66,44.76-18.34,62.32-1.27c12.55,12.2,24.8,24.69,37.14,37.11c1.27,1.28,2.2,2.9,3.39,4.51
		c8.5-6.16,16.87-9.46,26.24-10.2c15.72-1.25,29.15,3.68,40.26,14.76c35.51,35.43,70.96,70.93,106.43,106.4
		c1.28,1.28,2.61,2.5,4.22,4.04c3.35-9.93,6.22-19.57,9.81-28.93c22.37-58.45,52.06-112.8,93.18-160.22
		c22.45-25.89,50.05-44.92,84-53.06c38.73-9.28,73.25,0.79,104.23,24.41c24.62,18.77,44.72,41.53,56.28,70.69
		c15.02,37.9,9.5,74.1-10.42,108.79c-16.11,28.06-39.05,49.59-65.23,67.96c-49.09,34.44-101.37,62.53-159.12,79.69
		c-0.63,0.19-1.22,0.51-3.55,2.55c1.77,0.94,3.9,1.52,5.26,2.87c35.18,35.05,70.3,70.18,105.4,105.31
		c19.71,19.72,22.29,43.68,7,67.5c1.12,1.21,2.28,2.56,3.54,3.82c12.01,12.03,24.1,23.98,36.04,36.08
		c21.81,22.11,17.21,55.33-9.72,70.77c-15.63,8.96-37.38,6.13-50.78-6.95c-12.64-12.34-25.04-24.92-37.48-37.47
		c-1.28-1.29-2.08-3.06-2.95-4.38c-19.22,12.35-37.75,14.22-56.66,3.31c-4.12-2.38-7.87-5.62-11.26-8.99
		c-43.44-43.29-86.79-86.68-130.13-130.08c-1.4-1.4-2.44-3.16-4.81-6.27c-1.88,2.81-2.78,4.63-4.11,6.06
		c-49,52.98-98,105.94-147.08,158.84c-13.78,14.86-30.97,20.08-50.44,15.23c-19.13-4.76-31.78-17.38-36.69-36.52
		c-5-19.52,0.21-36.7,15.01-50.47c44.29-41.21,88.73-82.26,133.11-123.37c10-9.27,20-18.54,31.28-28.99
		c-1.97-1.3-3.89-2.16-5.29-3.55c-42.59-42.5-84.66-85.54-127.89-127.39C228.24,417.42,221.86,390.85,238.43,365.53z M253.95,396.69
		c-0.37,6.72,3.01,12.77,8.27,18.03c110.17,110.16,220.33,220.33,330.51,330.49c11.33,11.33,26.05,11.37,37.43,0.07
		c16.39-16.28,32.72-32.61,49.02-48.97c12.96-12.99,12.91-26.61-0.08-39.6c-25.68-25.69-51.37-51.37-77.05-77.06
		c-83.89-83.89-167.78-167.78-251.67-251.66c-11.99-11.99-26.73-11.99-38.67-0.05c-16.57,16.56-33.11,33.14-49.69,49.69
		C256.99,382.63,253.88,388.44,253.95,396.69z M538.65,480.29c2.01-1.43,3.97-2.69,5.78-4.13c28.9-23.05,58.24-45.57,86.55-69.32
		c36.63-30.73,72.34-62.56,103.54-99.02c13.22-15.45,26.07-31.22,34.74-49.83c2.15-4.62,3.78-9.63,4.68-14.63
		c0.96-5.38-5.6-11.34-10.78-9.72c-7.09,2.22-14.26,4.71-20.72,8.29c-23.8,13.18-44.07,31.08-63.46,49.87
		c-49.39,47.86-93.26,100.61-135.42,154.83c-5.68,7.31-11.03,14.88-15.98,21.57C531.58,472.58,535.04,476.35,538.65,480.29z
		 M397.37,586.51c-0.12,0.08-0.57,0.29-0.92,0.61C342.09,637.46,287.69,687.77,233.4,738.2c-11.15,10.35-11.39,27.03-1.02,37.49
		c10.46,10.56,27.36,10.19,37.84-1.11c50.06-53.95,100.05-107.97,150.06-161.97c0.64-0.69,1.16-1.47,1.38-1.75
		C413.41,602.59,405.44,594.6,397.37,586.51z M512.78,454.21c0.63-0.75,1.16-1.36,1.66-2c17.89-22.79,35.32-45.95,53.76-68.28
		c31.72-38.4,64.28-76.12,100.73-110.2c22.77-21.3,46.39-41.55,74.84-55.22c0.18-0.09,0.16-0.58,0.28-1.06
		c-16.31-4.75-31.98-1.94-47.22,4.19c-28.57,11.5-51.85,30.54-72.38,52.92c-31.75,34.61-58.44,73.07-82.22,113.44
		c-11.37,19.31-20.82,39.74-31.13,59.68C509.89,450.04,509.03,452.41,512.78,454.21z M553.4,494.91c1.61,3.71,4.06,1.42,6.08,0.56
		c33.53-14.27,64.62-32.93,94.74-53.22c31.24-21.05,61.9-42.93,88.31-70.04c19.32-19.83,35.8-41.69,44.79-68.34
		c4.41-13.06,5.96-26.33,2.16-40.54c-3.59,6.39-6.62,12.28-10.1,17.88c-13.87,22.33-30.96,42.12-49.09,61.01
		c-39.99,41.67-84.02,78.87-128.79,115.21C585.78,470.21,569.53,482.38,553.4,494.91z M600.54,498.14c0.12,0.2,0.23,0.4,0.35,0.61
		c0.93-0.27,1.88-0.49,2.79-0.83c49.96-18.86,96.61-43.87,139.55-75.63c23.36-17.28,42.58-38.24,55.08-64.8
		c7.31-15.54,11.07-31.81,9.41-50.31c-2.64,6.6-4.6,12.21-7.08,17.57c-12.85,27.82-31.86,51.14-54.21,71.66
		c-38.32,35.18-81.18,64.19-125.94,90.47C613.91,490.75,607.19,494.39,600.54,498.14z M507.75,405.81c0.3,0.13,0.6,0.26,0.9,0.39
		c0.8-1.39,1.63-2.76,2.41-4.17c25.24-45.77,54.24-88.99,87.94-128.97c21.42-25.41,45.79-47.47,75.4-63.1
		c7.71-4.07,15.92-7.19,24.42-10.97c-10.59-0.9-20.58-0.08-30.4,2.6c-31.46,8.57-56,27.65-76.16,52.33
		c-31.18,38.17-54.51,81.14-74.18,126.16C514.37,388.54,511.17,397.23,507.75,405.81z M660.22,751.7
		c13.44,13.46,26.73,26.97,40.26,40.24c7.25,7.11,18.97,6.82,26.06-0.18c7.14-7.05,7.69-18.66,0.57-26.01
		c-13.31-13.72-26.97-27.09-40.34-40.48C677.85,734.15,669.08,742.89,660.22,751.7z M281.98,320.69
		c-13.44-13.5-26.71-27.28-40.52-40.5c-7.26-6.94-19.47-5.92-26.11,1.17c-6.95,7.42-6.78,18.53,0.58,26.06
		c7.8,7.98,15.8,15.76,23.62,23.72c5.33,5.43,10.5,11.01,15.63,16.42C264.5,338.2,273.05,329.64,281.98,320.69z"/>
	<path class="st0" d="M298.96,420.7c0.21-5.27,2.67-9.18,7.4-11.45c4.82-2.31,9.36-1.47,13.43,1.93c1.02,0.85,1.93,1.83,2.87,2.78
		c90.01,90.01,180.01,180.02,270.05,269.99c4.35,4.35,7.57,8.81,5.26,15.35c-2.8,7.92-12.27,11.04-19.14,6.2
		c-1.62-1.14-3.04-2.59-4.45-4c-89.78-89.76-179.55-179.53-269.33-269.3C301.84,428.99,298.72,425.76,298.96,420.7z"/>
</g>
</svg>
