<?xml version="1.0" encoding="utf-8"?>
<!-- Generator: Adobe Illustrator 23.0.1, SVG Export Plug-In . SVG Version: 6.00 Build 0)  -->
<svg version="1.1" id="Layer_1" xmlns="http://www.w3.org/2000/svg" xmlns:xlink="http://www.w3.org/1999/xlink" x="0px" y="0px"
	 viewBox="0 0 325 325" style="enable-background:new 0 0 325 325;" xml:space="preserve">
<style type="text/css">
	.st0{fill:#EF6043;}
</style>
<g>
	<path class="st0" d="M88.2,119.7c-4.2-4.2-8.5-8.3-12.6-12.6c-5.1-5.3-5.1-13.5-0.1-18.8c5.2-5.4,13.8-5.7,19.2-0.4
		c3.9,3.8,7.7,7.6,11.5,11.4c0.4,0.4,0.7,0.9,1,1.4c2.6-1.9,5.2-2.9,8.1-3.1c4.8-0.4,9,1.1,12.4,4.6c11,10.9,21.9,21.9,32.8,32.8
		c0.4,0.4,0.8,0.8,1.3,1.2c1-3.1,1.9-6,3-8.9c6.9-18,16.1-34.8,28.7-49.4c6.9-8,15.4-13.9,25.9-16.4c11.9-2.9,22.6,0.2,32.2,7.5
		c7.6,5.8,13.8,12.8,17.4,21.8c4.6,11.7,2.9,22.9-3.2,33.6c-5,8.7-12,15.3-20.1,21c-15.1,10.6-31.3,19.3-49.1,24.6
		c-0.2,0.1-0.4,0.2-1.1,0.8c0.5,0.3,1.2,0.5,1.6,0.9c10.9,10.8,21.7,21.7,32.5,32.5c6.1,6.1,6.9,13.5,2.2,20.8
		c0.3,0.4,0.7,0.8,1.1,1.2c3.7,3.7,7.4,7.4,11.1,11.1c6.7,6.8,5.3,17.1-3,21.8c-4.8,2.8-11.5,1.9-15.7-2.1
		c-3.9-3.8-7.7-7.7-11.6-11.6c-0.4-0.4-0.6-0.9-0.9-1.4c-5.9,3.8-11.6,4.4-17.5,1c-1.3-0.7-2.4-1.7-3.5-2.8
		c-13.4-13.4-26.8-26.7-40.1-40.1c-0.4-0.4-0.8-1-1.5-1.9c-0.6,0.9-0.9,1.4-1.3,1.9c-15.1,16.3-30.2,32.7-45.4,49
		c-4.3,4.6-9.6,6.2-15.6,4.7c-5.9-1.5-9.8-5.4-11.3-11.3c-1.5-6,0.1-11.3,4.6-15.6c13.7-12.7,27.4-25.4,41.1-38.1
		c3.1-2.9,6.2-5.7,9.6-8.9c-0.6-0.4-1.2-0.7-1.6-1.1c-13.1-13.1-26.1-26.4-39.5-39.3C85,135.7,83,127.5,88.2,119.7z M92.9,129.3
		c-0.1,2.1,0.9,3.9,2.6,5.6c34,34,68,68,102,102c3.5,3.5,8,3.5,11.5,0c5.1-5,10.1-10.1,15.1-15.1c4-4,4-8.2,0-12.2
		c-7.9-7.9-15.8-15.8-23.8-23.8c-25.9-25.9-51.8-51.8-77.6-77.6c-3.7-3.7-8.2-3.7-11.9,0c-5.1,5.1-10.2,10.2-15.3,15.3
		C93.9,125,92.9,126.7,92.9,129.3z M180.8,155.1c0.6-0.4,1.2-0.8,1.8-1.3c8.9-7.1,18-14.1,26.7-21.4c11.3-9.5,22.3-19.3,31.9-30.5
		c4.1-4.8,8-9.6,10.7-15.4c0.7-1.4,1.2-3,1.4-4.5c0.3-1.7-1.7-3.5-3.3-3c-2.2,0.7-4.4,1.5-6.4,2.6c-7.3,4.1-13.6,9.6-19.6,15.4
		c-15.2,14.8-28.8,31-41.8,47.8c-1.8,2.3-3.4,4.6-4.9,6.7C178.6,152.7,179.7,153.9,180.8,155.1z M137.2,187.9c0,0-0.2,0.1-0.3,0.2
		c-16.8,15.5-33.6,31.1-50.3,46.6c-3.4,3.2-3.5,8.3-0.3,11.6c3.2,3.3,8.4,3.1,11.7-0.3c15.4-16.6,30.9-33.3,46.3-50
		c0.2-0.2,0.4-0.5,0.4-0.5C142.1,192.8,139.7,190.3,137.2,187.9z M172.8,147c0.2-0.2,0.4-0.4,0.5-0.6c5.5-7,10.9-14.2,16.6-21.1
		c9.8-11.8,19.8-23.5,31.1-34c7-6.6,14.3-12.8,23.1-17c0.1,0,0-0.2,0.1-0.3c-5-1.5-9.9-0.6-14.6,1.3c-8.8,3.5-16,9.4-22.3,16.3
		c-9.8,10.7-18,22.5-25.4,35c-3.5,6-6.4,12.3-9.6,18.4C171.9,145.8,171.6,146.5,172.8,147z M185.3,159.6c0.5,1.1,1.3,0.4,1.9,0.2
		c10.3-4.4,19.9-10.2,29.2-16.4c9.6-6.5,19.1-13.2,27.2-21.6c6-6.1,11-12.9,13.8-21.1c1.4-4,1.8-8.1,0.7-12.5c-1.1,2-2,3.8-3.1,5.5
		c-4.3,6.9-9.6,13-15.1,18.8c-12.3,12.9-25.9,24.3-39.7,35.5C195.3,152,190.3,155.7,185.3,159.6z M199.9,160.6
		c0,0.1,0.1,0.1,0.1,0.2c0.3-0.1,0.6-0.2,0.9-0.3c15.4-5.8,29.8-13.5,43.1-23.3c7.2-5.3,13.1-11.8,17-20c2.3-4.8,3.4-9.8,2.9-15.5
		c-0.8,2-1.4,3.8-2.2,5.4c-4,8.6-9.8,15.8-16.7,22.1c-11.8,10.9-25,19.8-38.9,27.9C204,158.3,201.9,159.4,199.9,160.6z M171.2,132.1
		c0.1,0,0.2,0.1,0.3,0.1c0.2-0.4,0.5-0.9,0.7-1.3c7.8-14.1,16.7-27.5,27.1-39.8c6.6-7.8,14.1-14.6,23.3-19.5
		c2.4-1.3,4.9-2.2,7.5-3.4c-3.3-0.3-6.3,0-9.4,0.8c-9.7,2.6-17.3,8.5-23.5,16.1c-9.6,11.8-16.8,25-22.9,38.9
		C173.3,126.8,172.3,129.5,171.2,132.1z M218.3,238.8c4.1,4.2,8.2,8.3,12.4,12.4c2.2,2.2,5.9,2.1,8-0.1c2.2-2.2,2.4-5.8,0.2-8
		c-4.1-4.2-8.3-8.4-12.4-12.5C223.7,233.4,221,236.1,218.3,238.8z M101.6,105.8c-4.1-4.2-8.2-8.4-12.5-12.5c-2.2-2.1-6-1.8-8.1,0.4
		c-2.1,2.3-2.1,5.7,0.2,8c2.4,2.5,4.9,4.9,7.3,7.3c1.6,1.7,3.2,3.4,4.8,5.1C96.2,111.2,98.8,108.6,101.6,105.8z"/>
	<path class="st0" d="M106.8,136.7c0.1-1.6,0.8-2.8,2.3-3.5c1.5-0.7,2.9-0.5,4.1,0.6c0.3,0.3,0.6,0.6,0.9,0.9
		c27.8,27.8,55.5,55.5,83.3,83.3c1.3,1.3,2.3,2.7,1.6,4.7c-0.9,2.4-3.8,3.4-5.9,1.9c-0.5-0.4-0.9-0.8-1.4-1.2
		c-27.7-27.7-55.4-55.4-83.1-83.1C107.7,139.3,106.7,138.3,106.8,136.7z"/>
</g>
</svg>
