<?xml version="1.0" encoding="utf-8"?>
<!-- Generator: Adobe Illustrator 23.0.1, SVG Export Plug-In . SVG Version: 6.00 Build 0)  -->
<svg version="1.1" id="Layer_1" xmlns="http://www.w3.org/2000/svg" xmlns:xlink="http://www.w3.org/1999/xlink" x="0px" y="0px"
	 viewBox="0 0 1000 1000" style="enable-background:new 0 0 1000 1000;" xml:space="preserve">
<style type="text/css">
	.st0{fill:#02C5CA;}
</style>
<path class="st0" d="M316.32,260.62c0-10.73-0.94-20.79,0.19-30.6c2.84-24.84,25.57-43.29,51.51-42.78
	c24.65,0.49,46.39,20.22,48.47,44.68c0.79,9.25,0.13,18.64,0.13,28.32c64.54,0,128.22,0,192.64,0c0-6.82-0.36-13.79,0.1-20.7
	c0.39-6.01,0.93-12.21,2.76-17.89c7.33-22.77,30.55-37.24,53.96-34.18c24.5,3.21,43.18,23.03,44.35,47.46
	c0.4,8.36,0.07,16.77,0.07,25.67c6.91,0,13.13-0.24,19.31,0.06c12.26,0.59,24.85-0.07,36.68,2.54c30.53,6.77,53.02,34.18,54.2,65.37
	c0.88,23.2,0.41,46.45,0.46,69.68c0.2,107.58,0.38,215.17,0.52,322.74c0.05,37.65-25.2,67.17-62.42,73.04
	c-3.52,0.55-7.15,0.56-10.72,0.56c-156.7,0.03-313.39,0.04-470.1,0.01c-36.98-0.01-66.2-24.28-72.81-60.52
	c-0.8-4.42-0.98-8.99-0.98-13.5c-0.05-128.33-0.07-256.64-0.02-384.97c0.02-38.12,24.03-67.6,60.97-73.79
	c10.96-1.83,22.38-0.94,33.59-1.21C304.43,260.51,309.7,260.62,316.32,260.62z M234.53,401.63c0,2.28,0,4.14,0,6
	c0,50.82,0,101.64,0,152.46c0,53.47,0.05,106.94-0.04,160.42c-0.02,12.68,4.07,23.5,13.35,32.22c9.04,8.49,19.97,11.51,32.14,11.49
	c59.08-0.08,118.17-0.04,177.25-0.04c96.19,0,192.38,0.02,288.55-0.02c27.15-0.01,44.78-17.73,44.78-44.81
	c0-103.82,0-207.64,0-311.48c0-1.98,0-3.98,0-6.26C605.13,401.63,420.18,401.63,234.53,401.63z M234.53,370.96
	c185.45,0,370.23,0,555.17,0c0-14.06,0.62-27.8-0.15-41.47c-1.02-18.3-15.62-35.27-33.35-37.08c-15.37-1.57-31.03-0.33-46.64-0.33
	c-5.03,30.53-28.8,44.23-48.91,44.77c-25.46,0.68-42.76-14.47-51.83-45.41c-63.98,0-128,0-191.98,0
	c-8.79,29.86-24.46,44.53-48.55,45.39c-10.88,0.38-21-2.39-30.09-8.45c-13.21-8.81-20.39-21.46-22.75-37.05
	c-14.1,0-27.84-0.62-41.5,0.14c-21.45,1.19-37.89,17.83-39.14,39.28c-0.65,11.19-0.22,22.44-0.27,33.66
	C234.52,366.54,234.53,368.67,234.53,370.96z M639.2,261.66c0,8.1-0.1,16.2,0.03,24.3c0.19,11.43,9.08,20.22,20.22,20.17
	c11.12-0.06,19.87-8.92,19.93-20.42c0.08-15.74,0.07-31.46,0-47.2c-0.06-11.62-8.59-20.45-19.72-20.6
	c-11.4-0.15-20.28,8.64-20.43,20.39C639.12,246.09,639.2,253.88,639.2,261.66z M385.72,262.29c0-7.63,0-15.27,0-22.89
	c0-0.31,0-0.63,0-0.94c-0.16-11.66-8.58-20.42-19.73-20.55c-11.19-0.13-20.22,8.46-20.38,19.97c-0.22,16.04-0.21,32.09-0.01,48.13
	c0.15,11.5,9.13,20.18,20.26,20.12c11.09-0.06,19.71-8.91,19.83-20.47C385.79,277.87,385.72,270.08,385.72,262.29z"/>
<path class="st0" d="M512.58,462.32c14.89,0.02,24.69,9.97,24.63,25.04c-0.06,14.57-10.13,24.53-24.78,24.5
	c-14.73-0.02-24.84-10.3-24.73-25.12C487.82,472.2,497.91,462.3,512.58,462.32z"/>
<path class="st0" d="M632.04,486.73c0.01,15.09-9.82,25.13-24.64,25.14c-14.68,0.01-24.62-9.88-24.72-24.59
	c-0.09-15.04,9.74-24.97,24.73-24.96C622.41,462.33,632.03,471.85,632.04,486.73z"/>
<path class="st0" d="M512.35,558.65c15.06-0.02,24.88,9.75,24.87,24.75c-0.01,14.63-9.98,24.69-24.54,24.75
	c-14.76,0.06-24.99-10.13-24.96-24.9C487.74,568.61,497.7,558.67,512.35,558.65z"/>
<path class="st0" d="M537.21,679c-0.01,14.67-9.93,24.65-24.51,24.69c-14.85,0.04-24.99-10.02-24.99-24.77
	c0-14.74,10.15-24.8,25-24.76C527.06,654.23,537.22,664.52,537.21,679z"/>
<path class="st0" d="M678.19,486.94c0.04-14.98,9.9-24.69,25-24.62c14.57,0.07,24.45,10.13,24.39,24.84
	c-0.06,14.83-10.2,24.82-25.07,24.7C687.94,511.75,678.14,501.71,678.19,486.94z"/>
<path class="st0" d="M632.04,582.91c0.03,15.12-9.76,25.18-24.55,25.23c-14.83,0.06-24.87-10.05-24.8-24.97
	c0.07-14.81,9.81-24.51,24.64-24.52C622.47,558.65,632,568.01,632.04,582.91z"/>
<path class="st0" d="M678.19,583.51c-0.07-14.89,9.6-24.8,24.24-24.86c15.17-0.06,25.05,9.56,25.14,24.49
	c0.1,14.84-10,25.03-24.77,25.01C688.16,608.12,678.25,598.2,678.19,583.51z"/>
<path class="st0" d="M632.04,678.69c-0.02,15.1-9.8,25.01-24.69,25.01c-14.89,0-24.78-10.04-24.67-25.02
	c0.11-14.73,9.98-24.52,24.71-24.5C622.08,654.19,632.06,664.11,632.04,678.69z"/>
<path class="st0" d="M703.03,654.17c14.39,0.05,24.62,10.45,24.54,24.93c-0.08,14.89-10.14,24.71-25.21,24.6
	c-14.54-0.1-24.28-10.23-24.17-25.1C678.3,663.84,688.18,654.13,703.03,654.17z"/>
<path class="st0" d="M393,486.8c0.07-14.72,10.02-24.57,24.73-24.48c14.37,0.09,24.15,10.36,24.03,25.22
	c-0.11,14.29-10.3,24.37-24.55,24.32C402.79,511.81,392.94,501.61,393,486.8z"/>
<path class="st0" d="M322.71,558.65c14.29,0.04,24.18,10.02,24.27,24.52c0.09,14.56-10.09,24.96-24.43,24.97
	c-14.41,0.01-24.45-10.24-24.4-24.91C298.19,568.42,307.99,558.61,322.71,558.65z"/>
<path class="st0" d="M393,583.15c0.04-14.79,9.85-24.56,24.63-24.5c14.46,0.05,24.21,10.19,24.12,25.07
	c-0.09,14.31-10.24,24.43-24.46,24.42C402.88,608.12,392.97,597.92,393,583.15z"/>
<path class="st0" d="M393,678.86c0.02-14.74,9.95-24.74,24.5-24.68c14.16,0.05,24.33,10.58,24.25,25.13
	c-0.07,14.35-10.11,24.39-24.4,24.39C402.85,703.7,392.98,693.63,393,678.86z"/>
<path class="st0" d="M322.69,462.32c14.41,0.05,24.45,10.39,24.29,25.03c-0.16,14.39-10.23,24.49-24.41,24.51
	c-14.44,0.02-24.45-10.17-24.42-24.87C298.16,472.23,308.07,462.27,322.69,462.32z"/>
<path class="st0" d="M322.72,703.7c-14.56,0.06-24.53-9.93-24.59-24.63c-0.06-14.75,9.84-24.88,24.32-24.89
	c14.18-0.01,24.59,10.57,24.51,24.92C346.91,693.49,336.9,703.64,322.72,703.7z"/>
</svg>
