<?xml version="1.0" encoding="utf-8"?>
<!-- Generator: Adobe Illustrator 23.0.1, SVG Export Plug-In . SVG Version: 6.00 Build 0)  -->
<svg version="1.1" id="Layer_1" xmlns="http://www.w3.org/2000/svg" xmlns:xlink="http://www.w3.org/1999/xlink" x="0px" y="0px"
	 viewBox="0 0 70.32 70.32" style="enable-background:new 0 0 70.32 70.32;" xml:space="preserve">
<style type="text/css">
	.st0{fill:none;stroke:#FF0000;stroke-width:6.317;stroke-miterlimit:10;}
	.st1{fill:#FF0000;}
</style>
<title>Artboard 16</title>
<circle class="st0" cx="35.16" cy="35.16" r="32"/>
<path class="st1" d="M41.83,47.94L22.39,28.49c-1.68-1.68-1.68-4.43,0-6.11l0,0c1.68-1.68,4.43-1.68,6.11,0l19.44,19.44
	c1.68,1.68,1.68,4.43,0,6.11l0,0C46.26,49.62,43.51,49.62,41.83,47.94z"/>
<path class="st1" d="M47.94,28.49L28.49,47.94c-1.68,1.68-4.43,1.68-6.11,0l0,0c-1.68-1.68-1.68-4.43,0-6.11l19.44-19.44
	c1.68-1.68,4.43-1.68,6.11,0l0,0C49.62,24.07,49.62,26.81,47.94,28.49z"/>
</svg>
