<?xml version="1.0" encoding="utf-8"?>
<!-- Generator: Adobe Illustrator 23.0.1, SVG Export Plug-In . SVG Version: 6.00 Build 0)  -->
<svg version="1.1" id="Layer_1" xmlns="http://www.w3.org/2000/svg" xmlns:xlink="http://www.w3.org/1999/xlink" x="0px" y="0px"
	 viewBox="0 0 500 500" style="enable-background:new 0 0 500 500;" xml:space="preserve">
<style type="text/css">
	.st0{fill:#F900D6;stroke:#F900D6;stroke-miterlimit:10;}
</style>
<g>
	<path class="st0" d="M324.24,214.85c25.75,0,46.78-21.03,46.78-46.78s-21.03-46.78-46.78-46.78c-24.46,0-44.63,19.31-46.78,43.34
		H138.85c-5.58,0-9.87,3-9.87,7.3v1.72l96.99,106v90.46h-27.04c-2.57,0-4.29,1.72-4.29,4.29s1.72,4.29,4.29,4.29h63.09
		c2.57,0,4.29-1.72,4.29-4.29s-1.72-4.29-4.29-4.29h-27.04V278.8l65.23-71.24C307.08,212.28,315.66,214.85,324.24,214.85z
		 M324.24,129.45c21.03,0,38.19,17.17,38.19,38.19s-17.17,38.19-38.19,38.19c-6.44,0-12.87-1.72-18.45-4.72l25.75-28.32v-1.72
		c0-4.29-4.29-7.3-9.87-7.3h-35.62C288.19,144.9,304.5,129.45,324.24,129.45z M158.16,192.11l-17.6-19.31h179.82l-19.31,21.46
		c-6.87,2.15-15.02,4.29-28.32,4.29c-17.17,0-26.18-3.43-35.62-6.87c-9.87-3.43-20.17-7.3-38.62-7.3s-28.75,3.86-38.62,7.3
		L158.16,192.11z M230.69,270.64C230.69,270.64,230.26,270.64,230.69,270.64c-0.43,0-0.86,0-0.86,0l-65.66-71.67
		c9.01-3.43,18.02-6.44,33.9-6.44c17.17,0,26.18,3.43,35.62,6.87c9.87,3.43,20.17,7.3,38.62,7.3c6.87,0,12.87-0.43,17.6-1.29
		L230.69,270.64z"/>
	<path class="st0" d="M337.12,167.65c0,2.57,1.72,4.29,4.29,4.29h10.3c2.57,0,4.29-1.72,4.29-4.29c0-2.57-1.72-4.29-4.29-4.29h-10.3
		C338.83,163.36,337.12,165.5,337.12,167.65z"/>
	<path class="st0" d="M328.54,150.91v-10.3c0-2.57-1.72-4.29-4.29-4.29s-4.29,1.72-4.29,4.29v10.3c0,2.57,1.72,4.29,4.29,4.29
		S328.54,153.06,328.54,150.91z"/>
	<path class="st0" d="M340.55,190.39c0.86,0.86,2.15,1.29,3,1.29c0.86,0,2.15-0.43,3-1.29c1.72-1.72,1.72-4.29,0-6.01l-7.3-7.72
		c-1.72-1.72-4.29-1.72-6.01,0s-1.72,4.29,0,6.01L340.55,190.39z"/>
	<path class="st0" d="M307.94,145.33c-1.72-1.72-4.29-1.72-6.01,0c-1.72,1.72-1.72,4.29,0,6.01l7.3,7.3c0.86,0.86,2.15,1.29,3,1.29
		s2.15-0.43,3-1.29c1.72-1.72,1.72-4.29,0-6.01L307.94,145.33z"/>
	<path class="st0" d="M336.26,159.92c1.29,0,2.15-0.43,3-1.29l7.3-7.3c1.72-1.72,1.72-4.29,0-6.01c-1.72-1.72-4.29-1.72-6.01,0
		l-7.3,7.3c-1.72,1.72-1.72,4.29,0,6.01C334.11,159.49,335.4,159.92,336.26,159.92z"/>
</g>
</svg>
