<?xml version="1.0" encoding="utf-8"?>
<!-- Generator: Adobe Illustrator 23.0.1, SVG Export Plug-In . SVG Version: 6.00 Build 0)  -->
<svg version="1.1" id="Layer_1" xmlns="http://www.w3.org/2000/svg" xmlns:xlink="http://www.w3.org/1999/xlink" x="0px" y="0px"
	 viewBox="0 0 325 325" style="enable-background:new 0 0 325 325;" xml:space="preserve">
<style type="text/css">
	.st0{fill:#9412FF;}
</style>
<g>
	<path class="st0" d="M217.6,196.4c0.8,0.6,1.4,0.8,1.8,1.3c9.8,9.8,19.6,19.5,29.3,29.3c7,7,4.7,18.5-4.4,22.1
		c-5.6,2.2-10.6,0.9-14.8-3.3c-9.7-9.7-19.4-19.4-29.1-29.1c-0.4-0.4-0.7-0.9-1.1-1.4c-0.2-0.1-0.4-0.1-0.6-0.2
		c-0.3,0.5-0.5,1.1-1,1.5c-13.5,13.5-26.9,27-40.4,40.4c-7.3,7.3-16.6,7.3-23.9,0c-21.8-21.8-43.7-43.7-65.5-65.5
		c-7.2-7.2-7.2-16.5,0-23.7c14.4-14.4,28.8-28.8,43.2-43.2c0.4-0.4,0.9-0.7,1.4-1.1c-8-8-15.8-15.8-23.7-23.7
		c3.3-1.8,6.5-2.8,10-2.9c7.6-0.1,14.7,1.8,21.7,4.6c2.6,1,5.2,2.2,7.8,3.5c1.3,0.6,2,0.6,3-0.5C143.6,92,156,79.7,168.4,67.3
		c5.1-5.1,12.4-6.2,18.6-2.9c1.5,0.8,2.9,1.9,4,3c22.2,22.2,44.4,44.3,66.6,66.5c6.5,6.5,6.5,16.2,0,22.7
		c-12.7,12.7-25.4,25.4-38.1,38.1C219.1,195.2,218.6,195.6,217.6,196.4z M184.2,195.6c-22.4-22.4-44.6-44.6-66.9-66.9
		c-0.2,0.2-0.5,0.6-0.8,1c-14.4,14.4-28.9,28.9-43.3,43.3c-4.3,4.3-4.3,8.9-0.1,13.2c21.9,21.9,43.7,43.7,65.6,65.6
		c4.2,4.2,8.9,4.2,13.1,0c13.5-13.5,27.1-27.1,40.6-40.6c0.4-0.4,0.7-0.8,1.3-1.4c-4.1-4-8-7.9-12.2-11.9
		C182.7,197,183.6,196.2,184.2,195.6z M136.7,109.4c12.5,7.3,23.7,15.8,34.5,24.9c10.8,9.1,20.9,18.9,30.8,29
		c-4.3,4.4-8.5,8.7-12.5,12.8c2.3,2.3,4.7,4.7,7.3,7.3c1.3-1.4,2.6-2.9,4.2-4.6c4,4,8,8,12,12.1c0.3-0.4,0.6-0.8,1-1.2
		c12.6-12.6,25.2-25.2,37.8-37.8c4.4-4.4,4.4-8.9,0-13.3C229.9,116.8,208,95,186.1,73.1c-4.1-4.1-8.8-4.1-13,0
		c-10.6,10.6-21.2,21.2-31.9,31.9C139.8,106.4,138.4,107.8,136.7,109.4z M193.8,163.6c-0.7-0.7-1-1.1-1.4-1.5
		c-6.2-5.9-12.3-11.9-18.6-17.6c-12.1-10.9-24.8-21-38.9-29.3c-8-4.7-16.2-8.8-25.2-11c-2.8-0.7-5.8-1.1-8.7-1.6
		c29.4,29.4,58.7,58.7,87.9,87.9c0.9-0.9,2-1.9,3.2-3c-3.8-3.7-7.5-7.5-11.7-11.6C184.9,171.8,189.4,167.7,193.8,163.6z
		 M190.3,198.4c0.3,0.2,0.6,0.4,0.8,0.6c14.1,14.1,28.3,28.3,42.4,42.4c0.3,0.3,0.6,0.6,0.9,0.8c2.7,2.3,6.7,2.4,9.5,0.2
		c3.6-2.9,3.8-8,0.2-11.5c-14.2-14.2-28.4-28.4-42.5-42.5c-0.3-0.3-0.6-0.5-0.7-0.6C197.5,191.3,194,194.7,190.3,198.4z"/>
	<path class="st0" d="M118,205.3c-14.9,0-26.9-12.1-26.9-26.9c0-14.8,12.1-26.9,26.9-26.9c14.9,0,27,12.1,27,27
		C144.9,193.3,132.9,205.3,118,205.3z M118,199.3c11.6,0,20.9-9.3,21-20.9c0-11.6-9.3-21-20.8-21c-11.6,0-21.1,9.4-21.1,21
		C97.1,189.9,106.5,199.3,118,199.3z"/>
	<path class="st0" d="M220.1,141.9c-3.2,0-5.1-0.9-6.8-2.5c-9.2-9.2-18.4-18.4-27.6-27.6c-3.4-3.4-3.5-8.5-0.2-11.8
		c3.3-3.3,8.3-3.3,11.8,0.1c8.4,8.3,16.7,16.6,25,25c1.1,1.1,2.2,2.1,3.2,3.3c2.2,2.7,2.6,5.7,1.2,8.8
		C225.2,140.3,222.7,141.8,220.1,141.9z M221.8,133.7c-0.6-0.9-1.1-1.7-1.7-2.3c-8.9-8.9-17.8-17.8-26.6-26.7
		c-0.2-0.2-0.4-0.4-0.6-0.6c-1-0.9-2.2-0.9-3.1,0c-0.9,0.8-0.9,2.1-0.1,3.1c0.2,0.3,0.5,0.6,0.8,0.9c8.8,8.8,17.6,17.6,26.4,26.4
		c0.4,0.4,0.7,0.9,1.1,1c0.7,0.2,1.6,0.4,2.2,0.1C220.9,135.3,221.2,134.5,221.8,133.7z"/>
	<path class="st0" d="M240.8,234.5c0,2-1.6,3.6-3.6,3.5c-1.9,0-3.5-1.6-3.5-3.5c0-2,1.6-3.6,3.6-3.6
		C239.2,230.9,240.8,232.5,240.8,234.5z"/>
	<path class="st0" d="M104.8,174.3c2.6,0.2,4.6,1.8,6.4,3.6c0.2,0.2,0.1,1.3-0.2,1.5c-1.8,1.1-3.7,2.4-5.7,3.1
		c-1.6,0.6-3.1-0.4-4.1-1.7c-0.9-1.2-1.2-2.7-0.4-4.1C101.7,175.2,102.9,174.3,104.8,174.3z"/>
	<path class="st0" d="M122.2,165c-0.4,2.5-1.8,4.6-3.6,6.4c-0.2,0.2-1.3,0.1-1.5-0.1c-1.1-1.9-2.3-3.7-3.1-5.7c-0.6-1.5,0.2-3,1.5-4
		c1.3-1,2.9-1.2,4.4-0.4C121.3,161.9,122.1,163.1,122.2,165z"/>
	<path class="st0" d="M131.4,182.6c-2.3-0.3-4.3-1.8-6.1-3.6c-0.2-0.2-0.1-1.3,0.1-1.5c1.8-1.1,3.6-2.3,5.6-3.1
		c1.7-0.6,3.1,0.3,4.1,1.7c0.9,1.3,1.1,2.7,0.3,4.2C134.6,181.8,133.4,182.6,131.4,182.6z"/>
	<path class="st0" d="M113.9,172.3c-0.2,1.6-0.4,1.8-1.9,1.6c-2.1-0.3-4.2-0.6-5.8-2c-1.3-1.2-1.9-2.5-1.3-4.3
		c0.6-1.6,1.7-2.7,3.5-2.8c1.8-0.1,3.3,0.6,4,2.3C113,168.7,113.3,170.6,113.9,172.3z"/>
	<path class="st0" d="M108.8,191.9c-2-0.3-3.3-1.3-3.9-3.1c-0.5-1.5,0-3.4,1.3-4.3c2.1-1.6,4.6-1.7,7.1-1.9c0.2,0,0.7,0.5,0.6,0.8
		c-0.2,2.5-0.5,5-2.2,6.9C110.9,191,109.7,191.4,108.8,191.9z"/>
	<path class="st0" d="M127.7,192.4c-1.6-0.1-3-0.7-3.5-2.1c-0.7-1.9-1.1-4-1.5-6c-0.1-0.3,0.6-1.1,0.8-1.1c2.6,0.2,5.3,0.4,7.2,2.6
		c1.1,1.3,1.2,2.8,0.5,4.3C130.5,191.6,129.3,192.3,127.7,192.4z"/>
	<path class="st0" d="M121.7,191.6c0,2.4-2,4.2-4.2,4.1c-2.5-0.2-4.2-2.3-3.7-4.8c0.4-2.4,1.8-4.2,3.4-5.8c0.2-0.2,1-0.2,1.3,0
		C119.7,186,121.7,190.1,121.7,191.6z"/>
	<path class="st0" d="M124.3,174c-0.8-0.2-1.6-0.2-1.4-1.2c0.4-1.9,0.8-3.8,1.5-5.6c0.7-1.9,2.6-2.8,4.2-2.4
		c1.8,0.3,3.3,1.8,3.5,3.4c0.2,2-0.6,3.6-2.6,4.4C127.8,173.2,126,173.5,124.3,174z"/>
</g>
</svg>
