<?xml version="1.0" encoding="utf-8"?>
<!-- Generator: Adobe Illustrator 23.0.1, SVG Export Plug-In . SVG Version: 6.00 Build 0)  -->
<svg version="1.1" id="Layer_1" xmlns="http://www.w3.org/2000/svg" xmlns:xlink="http://www.w3.org/1999/xlink" x="0px" y="0px"
	 viewBox="0 0 1000 1000" style="enable-background:new 0 0 1000 1000;" xml:space="preserve">
<style type="text/css">
	.st0{fill:#9412FF;}
</style>
<path class="st0" d="M650.68,602.23c2.77,1.91,4.64,2.83,6.03,4.22c32.68,32.6,65.4,65.17,97.93,97.93
	c23.25,23.41,15.65,61.89-14.76,73.81c-18.59,7.29-35.4,3.17-49.52-10.9c-32.47-32.34-64.84-64.79-97.22-97.22
	c-1.4-1.4-2.46-3.15-3.68-4.74c-0.71-0.2-1.42-0.4-2.13-0.6c-1.05,1.7-1.81,3.69-3.18,5.07c-44.97,45.07-89.98,90.08-135.01,135.09
	c-24.44,24.43-55.36,24.37-79.88-0.14c-72.95-72.94-145.9-145.88-218.83-218.84c-23.96-23.96-23.91-55.17,0.1-79.18
	c48.08-48.08,96.16-96.16,144.27-144.21c1.4-1.4,3.17-2.42,4.77-3.61c-26.84-26.83-52.85-52.82-79.26-79.22
	c11.06-5.96,21.77-9.43,33.48-9.64c25.28-0.45,49.09,6.18,72.34,15.21c8.83,3.43,17.51,7.31,25.99,11.53
	c4.18,2.08,6.67,1.9,10.13-1.58c41.22-41.51,82.6-82.86,124.02-124.16c16.99-16.94,41.53-20.84,62.04-9.71
	c4.9,2.66,9.54,6.22,13.49,10.16c74.22,74.03,148.35,148.15,222.43,222.32c21.85,21.88,21.88,53.98-0.02,75.97
	c-42.34,42.51-84.82,84.87-127.27,127.28C655.52,598.47,653.86,599.63,650.68,602.23z M539.15,599.84
	c-74.73-74.73-148.91-148.91-223.5-223.5c-0.59,0.72-1.55,2.11-2.73,3.28c-48.18,48.22-96.39,96.41-144.58,144.61
	c-14.43,14.43-14.5,29.76-0.17,44.08c73.06,73.07,146.12,146.13,219.19,219.19c14.12,14.11,29.63,14.15,43.69,0.09
	c45.26-45.25,90.51-90.5,135.76-135.76c1.27-1.27,2.48-2.59,4.42-4.64c-13.55-13.32-26.82-26.35-40.62-39.91
	C533.92,604.4,536.93,601.77,539.15,599.84z M380.49,311.69c41.69,24.33,79.28,52.68,115.24,83.26
	c35.93,30.55,69.91,63.15,102.85,96.95c-14.37,14.75-28.36,29.11-41.8,42.9c7.74,7.72,15.57,15.55,24.34,24.29
	c4.22-4.61,8.77-9.6,13.93-15.24c13.47,13.51,26.59,26.66,40.17,40.28c1.07-1.31,2.03-2.7,3.2-3.87
	c42.05-42.09,84.13-84.16,126.2-126.23c14.69-14.69,14.71-29.75,0.05-44.41c-73.06-73.07-146.13-146.14-219.2-219.2
	c-13.86-13.86-29.47-13.84-43.34,0.02c-35.48,35.47-70.94,70.95-106.43,106.41C390.88,301.66,385.94,306.37,380.49,311.69z
	 M571.19,492.79c-2.37-2.48-3.46-3.72-4.65-4.85c-20.66-19.61-40.94-39.64-62.08-58.71c-40.37-36.44-82.93-70.09-129.92-97.77
	c-26.61-15.67-54.17-29.32-84.34-36.78c-9.51-2.35-19.31-3.55-28.99-5.28c98.35,98.35,196.14,196.14,293.55,293.55
	c3.05-2.89,6.65-6.28,10.58-9.99c-12.54-12.5-24.99-24.92-38.92-38.8C541.54,520.18,556.32,506.53,571.19,492.79z M559.53,609
	c0.92,0.66,1.99,1.23,2.81,2.05c47.27,47.23,94.52,94.48,141.77,141.73c0.94,0.94,1.88,1.9,2.89,2.76c9.09,7.78,22.39,8,31.77,0.54
	c12.19-9.69,12.6-26.69,0.76-38.55c-47.34-47.4-94.72-94.75-142.1-142.1c-0.89-0.89-1.92-1.66-2.32-2
	C583.33,585.21,571.81,596.72,559.53,609z"/>
<path class="st0" d="M317.88,632.05c-49.63-0.05-89.86-40.35-89.84-89.99c0.02-49.57,40.4-89.96,89.95-89.98
	c49.81-0.03,90.15,40.46,90.04,90.34C407.91,592.06,367.64,632.09,317.88,632.05z M317.98,612.05c38.7,0.02,69.98-31.12,70.05-69.74
	s-31.15-70.11-69.65-70.23c-38.78-0.13-70.35,31.33-70.34,70.08C248.04,580.74,279.36,612.03,317.98,612.05z"/>
<path class="st0" d="M658.82,420.27c-10.56,0.11-17.18-2.89-22.74-8.46c-30.73-30.75-61.53-61.45-92.2-92.26
	c-11.47-11.52-11.6-28.36-0.61-39.36c10.99-11.01,27.79-10.99,39.37,0.49c27.91,27.69,55.64,55.56,83.43,83.36
	c3.65,3.65,7.5,7.15,10.81,11.09c7.46,8.88,8.79,19,3.97,29.41C676.1,414.8,667.55,419.95,658.82,420.27z M664.64,393.01
	c-2.14-2.95-3.56-5.55-5.57-7.56c-29.61-29.74-59.31-59.4-88.98-89.07c-0.71-0.71-1.38-1.46-2.14-2.1
	c-3.46-2.91-7.39-2.93-10.37-0.1c-2.97,2.83-3.17,6.88-0.41,10.35c0.82,1.04,1.83,1.94,2.77,2.88
	c29.44,29.44,58.88,58.88,88.33,88.32c1.17,1.17,2.28,2.87,3.7,3.23c2.41,0.63,5.42,1.21,7.49,0.28
	C661.49,398.33,662.66,395.52,664.64,393.01z"/>
<path class="st0" d="M728.07,729.62c-0.06,6.74-5.37,11.87-12.17,11.74c-6.51-0.12-11.7-5.3-11.77-11.75
	c-0.07-6.61,5.32-11.99,12.03-11.99C722.93,717.63,728.13,722.86,728.07,729.62z"/>
<path class="st0" d="M273.8,528.39c8.74,0.72,15.32,6.07,21.41,12.04c0.79,0.78,0.4,4.45-0.53,5.02
	c-6.15,3.81-12.31,7.95-19.04,10.37c-5.34,1.92-10.45-1.23-13.82-5.82c-3.03-4.13-4.06-8.88-1.29-13.6
	C263.38,531.54,267.57,528.53,273.8,528.39z"/>
<path class="st0" d="M332.01,497.45c-1.19,8.31-5.95,15.23-12.12,21.22c-0.83,0.81-4.47,0.45-5.02-0.46
	c-3.77-6.19-7.71-12.42-10.28-19.14c-1.9-4.97,0.69-9.91,4.91-13.2c4.41-3.44,9.54-3.86,14.54-1.32
	C328.97,487.06,331.72,491.25,332.01,497.45z"/>
<path class="st0" d="M362.71,556.24c-7.81-1.09-14.44-6-20.31-12.01c-0.8-0.82-0.45-4.44,0.46-5.01c6-3.76,12.04-7.72,18.59-10.26
	c5.53-2.14,10.28,0.95,13.64,5.77c3.13,4.48,3.81,9.16,1.1,14.05C373.49,553.69,369.38,556.32,362.71,556.24z"/>
<path class="st0" d="M304.04,521.89c-0.55,5.21-1.43,6.07-6.49,5.4c-6.93-0.92-13.88-1.88-19.41-6.8c-4.35-3.87-6.36-8.47-4.3-14.26
	c1.96-5.49,5.69-8.99,11.61-9.47c6.06-0.49,11.06,2.08,13.38,7.59C301.18,509.94,302.35,516.03,304.04,521.89z"/>
<path class="st0" d="M287.13,587.43c-6.6-1.13-11.05-4.49-13.13-10.52c-1.68-4.85,0.04-11.2,4.25-14.33
	c6.98-5.19,15.34-5.77,23.6-6.4c0.69-0.05,2.21,1.69,2.15,2.52c-0.54,8.34-1.6,16.73-7.46,23.17
	C294.19,584.46,290.31,585.63,287.13,587.43z"/>
<path class="st0" d="M350.35,588.93c-5.33-0.23-10.05-2.23-11.83-7.04c-2.39-6.44-3.63-13.34-4.95-20.13
	c-0.21-1.07,1.91-3.76,2.78-3.69c8.76,0.74,17.71,1.43,24.04,8.76c3.74,4.33,4.08,9.26,1.69,14.4
	C359.74,586.28,355.64,588.56,350.35,588.93z"/>
<path class="st0" d="M330.25,586.41c-0.07,7.86-6.62,14.16-14.07,13.54c-8.39-0.7-13.96-7.68-12.5-15.87
	c1.4-7.86,6.02-13.95,11.47-19.41c0.75-0.75,3.25-0.81,4.19-0.14C323.69,567.62,330.3,581.36,330.25,586.41z"/>
<path class="st0" d="M338.83,527.49c-2.66-0.54-5.38-0.6-4.57-4.12c1.44-6.28,2.75-12.69,5.14-18.64c2.49-6.22,8.57-9.21,13.94-8.18
	c6.12,1.16,11.08,5.97,11.76,11.4c0.82,6.55-2.08,12.16-8.66,14.66C350.77,524.76,344.71,525.9,338.83,527.49z"/>
</svg>
