<?xml version="1.0" encoding="utf-8"?>
<!-- Generator: Adobe Illustrator 23.0.1, SVG Export Plug-In . SVG Version: 6.00 Build 0)  -->
<svg version="1.1" id="Layer_1" xmlns="http://www.w3.org/2000/svg" xmlns:xlink="http://www.w3.org/1999/xlink" x="0px" y="0px"
	 viewBox="0 0 1000 1000" style="enable-background:new 0 0 1000 1000;" xml:space="preserve">
<style type="text/css">
	.st0{fill:#F6BF56;}
</style>
<g>
	<path class="st0" d="M271.23,229.38c0-13.22-0.16-25.54,0.05-37.86c0.21-12.13,10.81-19.95,21.84-16.41
		c7.04,2.26,11.34,8.42,11.46,16.98c0.15,10.33,0.04,20.66,0.04,31c0,1.81,0,3.63,0,5.86c19.89,0,39.42,0,59.55,0
		c0-5.88,0-11.66,0-17.44c0-6.67-0.12-13.33,0.04-20c0.22-9.83,7.26-17.1,16.46-17.27c9.19-0.17,16.51,6.95,16.76,16.86
		c0.27,10.49,0.08,21,0.08,31.49c0,1.98,0,3.96,0,6.36c19.92,0,39.46,0,59.61,0c0-11.18-0.03-22.29,0.02-33.41
		c0.01-2.65-0.01-5.37,0.52-7.94c1.69-8.18,8.98-13.81,16.93-13.34c8.64,0.51,15.43,7.01,15.67,15.81
		c0.32,11.49,0.11,22.99,0.14,34.49c0,1.31,0.12,2.62,0.21,4.36c19.74,0,39.28,0,59.46,0c0-4.58,0-9.19,0-13.8
		c0.01-8.17-0.19-16.34,0.1-24.49c0.34-9.41,7.82-16.5,16.79-16.39c8.91,0.11,16.01,6.89,16.29,16.24
		c0.32,10.99,0.12,21.99,0.15,32.99c0,1.79,0,3.58,0,5.9c10.77,0,20.9,0.01,31.04,0c14.81-0.01,27.8,4.69,38.55,15.01
		c11.3,10.86,16.64,24.34,16.69,39.87c0.1,34.33,0.07,68.66,0.01,102.99c-0.02,8.79-3.99,14.89-10.87,17.43
		c-6.44,2.38-14.21,0.93-18.05-4.7c-2.47-3.61-4.03-8.44-4.32-12.83c-0.64-9.45-0.2-18.97-0.2-28.84c-139.31,0-278.36,0-418.15,0
		c0,1.65,0,3.41,0,5.17c0,112.65,0,225.31,0,337.96c0,14.95,8.14,23.03,23.25,23.04c62.99,0.02,125.98,0.01,188.98,0.02
		c2.33,0,4.68-0.02,6.99,0.22c8.79,0.91,14.9,7.7,14.93,16.43c0.02,8.67-6.12,15.61-14.81,16.65c-1.32,0.16-2.66,0.12-3.99,0.12
		c-64.49,0-128.98,0.03-193.48-0.01c-28.05-0.02-49.87-18.44-54.48-45.98c-0.57-3.42-0.55-6.97-0.55-10.46
		c-0.03-138.65-0.04-277.3-0.01-415.95c0.01-28.1,17.02-50.17,43.45-54.9c10.05-1.8,20.58-0.94,30.89-1.23
		C263.03,229.3,266.83,229.38,271.23,229.38z M636.21,324.14c0-15.13,0.73-29.95-0.25-44.66c-0.68-10.28-9.69-16.62-20.96-16.62
		c-125-0.04-249.99-0.04-374.99,0c-12.96,0-21.32,8.2-21.56,21.15c-0.23,12.33-0.06,24.67-0.03,37c0,0.97,0.27,1.93,0.45,3.13
		C358.08,324.14,497.14,324.14,636.21,324.14z"/>
	<path class="st0" d="M780.03,527.58c-1.31,1.72-2.54,3.26-3.69,4.85c-57.25,79.68-114.51,159.34-171.68,239.07
		c-3.41,4.76-7.49,8.18-12.78,10.72c-28.65,13.76-57.21,27.69-85.74,41.71c-6.59,3.24-12.98,4.38-19.35,0
		c-6.36-4.38-7.85-10.68-6.88-18.03c4.42-33.51,8.67-67.04,13.21-100.54c0.4-2.97,2.03-6.03,3.82-8.52
		C566.23,600.18,635.54,503.53,705.02,407c18.71-26,53.02-31.48,79.34-13.22c4.93,3.42,9.84,6.86,14.64,10.46
		c24.66,18.49,30.37,52.5,13.08,78.02c-3.99,5.89-8.24,11.61-12.63,17.77c2.33,1.66,4.35,3.06,6.33,4.51
		c21.33,15.67,26.58,44.48,11.35,66.13c-21.17,30.11-42.82,59.89-64.37,89.73c-5.94,8.23-16.15,9.86-23.74,4.19
		c-7.58-5.66-8.97-15.67-3.02-23.96c20.09-28.02,39.94-56.23,60.57-83.85C796,544.14,793.35,534.55,780.03,527.58z M590.67,733.32
		c1.35-1.74,2.39-3.01,3.35-4.34c45.12-62.76,90.22-125.52,135.34-188.29c18.08-25.16,36.23-50.28,54.24-75.49
		c8.89-12.44,6.64-25.99-5.58-35.03c-3.21-2.38-6.46-4.71-9.7-7.06c-14.72-10.66-27.56-8.62-38.15,6.11
		c-58.34,81.16-116.67,162.32-175,243.48c-5.43,7.55-10.83,15.13-16.49,23.05C560.6,701.98,577.75,714.19,590.67,733.32z
		 M516.55,781.7c17.1-8.32,33.17-16.14,49.54-24.1c-9.16-17.24-22.92-27.33-42.37-30.6C521.33,745.25,519.01,762.95,516.55,781.7z"
		/>
	<path class="st0" d="M499.69,430.7c27.15,0,54.3-0.08,81.45,0.04c12.52,0.06,20.42,10.53,16.76,21.81
		c-2.29,7.09-8.59,11.42-16.94,11.43c-34.81,0.03-69.62,0.02-104.43,0.01c-19.82,0-39.64,0.08-59.46-0.05
		c-8.35-0.05-14.81-5.64-16.25-13.5c-1.43-7.83,2.38-15.49,9.66-18.3c2.85-1.1,6.16-1.38,9.27-1.39
		C446.39,430.66,473.04,430.7,499.69,430.7z"/>
	<path class="st0" d="M473.45,555.83c-18.47,0-36.95,0.08-55.42-0.04c-9.16-0.06-15.71-5.43-17.21-13.61
		c-1.47-8.02,2.57-15.82,10.11-18.47c3.05-1.07,6.51-1.35,9.78-1.36c32.79-0.09,65.57-0.06,98.36-0.06c3.33,0,6.66-0.06,9.99,0.02
		c10.51,0.26,17.93,7.28,17.86,16.84c-0.06,9.56-7.56,16.59-18.05,16.65C510.39,555.9,491.92,555.83,473.45,555.83z"/>
	<path class="st0" d="M302.2,630.11c3.52-3.85,6.66-7.49,10.01-10.92c6.75-6.9,13.59-13.71,20.43-20.51
		c8.3-8.27,18.46-8.93,25.52-1.71c6.99,7.15,6.32,17.07-1.79,25.18c-13.75,13.78-27.54,27.52-41.32,41.28
		c-0.47,0.47-0.94,0.95-1.42,1.4c-7.43,6.89-16.77,6.9-24.08-0.2c-7.04-6.84-13.98-13.79-20.79-20.86
		c-6.97-7.24-6.95-17.51-0.18-24.1c6.64-6.47,16.51-6.29,23.73,0.54C295.44,623.13,298.39,626.26,302.2,630.11z"/>
	<path class="st0" d="M301.33,537.91c11.39-11.3,22.1-21.98,32.86-32.61c4.75-4.69,10.36-6.48,16.9-4.45
		c6.29,1.95,10.06,6.3,11.44,12.65c1.22,5.62-0.35,10.68-4.31,14.7c-14.96,15.17-29.95,30.3-45.15,45.23
		c-6.59,6.48-16.22,6.35-22.95-0.09c-7.46-7.13-14.74-14.45-21.85-21.92c-6.47-6.8-6.25-17.01,0.13-23.4
		c6.51-6.52,16.29-6.67,23.33-0.13C295,530.93,297.94,534.34,301.33,537.91z"/>
	<path class="st0" d="M301.57,446.15c11.21-11.17,21.91-21.86,32.65-32.53c4.79-4.76,10.58-6.32,16.97-4.39
		c6.23,1.88,10.05,6.35,11.36,12.74c1.15,5.62-0.43,10.64-4.42,14.67c-14.85,15.04-29.69,30.08-44.77,44.89
		c-7.02,6.9-16.64,6.62-23.69-0.26c-7.03-6.85-13.98-13.79-20.82-20.83c-6.99-7.2-7.07-17.55-0.4-24.14
		c6.69-6.61,16.84-6.34,24.12,0.73C295.56,439.92,298.42,442.94,301.57,446.15z"/>
	<path class="st0" d="M443.18,647.61c-8.16,0-16.32,0.09-24.48-0.03c-10.98-0.16-18.42-7.13-18.26-16.92
		c0.16-9.8,7.67-16.52,18.66-16.55c16.49-0.05,32.98-0.08,49.47,0.03c7.8,0.05,13.91,4.38,16.27,11.04
		c2.36,6.67,0.65,14.49-5.18,18.36c-3.4,2.25-7.87,3.26-12,3.91c-4.06,0.65-8.31,0.15-12.47,0.15
		C451.17,647.62,447.18,647.62,443.18,647.61z"/>
</g>
</svg>
