<?xml version="1.0" encoding="utf-8"?>
<!-- Generator: Adobe Illustrator 23.0.1, SVG Export Plug-In . SVG Version: 6.00 Build 0)  -->
<svg version="1.1" id="Layer_1" xmlns="http://www.w3.org/2000/svg" xmlns:xlink="http://www.w3.org/1999/xlink" x="0px" y="0px"
	 viewBox="0 0 1000 1000" style="enable-background:new 0 0 1000 1000;" xml:space="preserve">
<style type="text/css">
	.st0{fill:#F6BF56;}
</style>
<g>
	<path class="st0" d="M292.41,244.46c0-12.46-0.15-24.07,0.05-35.68c0.2-11.43,10.19-18.8,20.58-15.47c6.64,2.13,10.69,7.94,10.8,16
		c0.14,9.74,0.04,19.47,0.04,29.22c0,1.71,0,3.42,0,5.52c18.75,0,37.15,0,56.12,0c0-5.54,0-10.99,0-16.44
		c0-6.29-0.11-12.56,0.04-18.85c0.21-9.26,6.84-16.12,15.51-16.28c8.66-0.16,15.56,6.55,15.8,15.89c0.25,9.89,0.08,19.79,0.08,29.68
		c0,1.87,0,3.73,0,5.99c18.77,0,37.19,0,56.18,0c0-10.54-0.03-21.01,0.02-31.49c0.01-2.5-0.01-5.06,0.49-7.48
		c1.59-7.71,8.46-13.02,15.96-12.57c8.14,0.48,14.54,6.61,14.77,14.9c0.3,10.83,0.1,21.67,0.13,32.51c0,1.23,0.11,2.47,0.2,4.11
		c18.6,0,37.02,0,56.04,0c0-4.32,0-8.66,0-13.01c0.01-7.7-0.18-15.4,0.09-23.08c0.32-8.87,7.37-15.55,15.82-15.45
		c8.4,0.1,15.09,6.49,15.35,15.31c0.3,10.36,0.11,20.73,0.14,31.09c0,1.69,0,3.37,0,5.56c10.15,0,19.7,0.01,29.25,0
		c13.96-0.01,26.2,4.42,36.33,14.15c10.65,10.24,15.68,22.94,15.73,37.58c0.09,32.36,0.07,64.71,0.01,97.07
		c-0.02,8.28-3.76,14.03-10.24,16.43c-6.07,2.24-13.39,0.88-17.01-4.43c-2.33-3.4-3.8-7.95-4.07-12.09
		c-0.6-8.91-0.19-17.88-0.19-27.18c-131.3,0-262.35,0-394.1,0c0,1.56,0,3.21,0,4.87c0,106.17,0,212.35,0,318.52
		c0,14.09,7.67,21.71,21.91,21.71c59.37,0.02,118.73,0.01,178.11,0.02c2.2,0,4.41-0.02,6.59,0.21c8.28,0.86,14.04,7.26,14.07,15.48
		c0.02,8.17-5.77,14.71-13.96,15.69c-1.24,0.15-2.51,0.11-3.76,0.11c-60.78,0-121.56,0.03-182.35-0.01
		c-26.44-0.02-47-17.38-51.35-43.34c-0.54-3.22-0.52-6.57-0.52-9.86c-0.03-130.67-0.04-261.35-0.01-392.02
		c0.01-26.48,16.04-47.28,40.95-51.74c9.47-1.7,19.4-0.89,29.11-1.16C284.68,244.38,288.26,244.46,292.41,244.46z M636.4,333.77
		c0-14.26,0.69-28.23-0.24-42.09c-0.64-9.69-9.13-15.66-19.75-15.66c-117.81-0.04-235.61-0.04-353.42,0
		c-12.21,0-20.09,7.73-20.32,19.93c-0.22,11.62-0.06,23.25-0.03,34.87c0,0.91,0.25,1.82,0.42,2.95
		C374.27,333.77,505.33,333.77,636.4,333.77z"/>
	<path class="st0" d="M771.95,525.51c-1.23,1.62-2.39,3.07-3.48,4.57c-53.96,75.1-107.92,150.17-161.8,225.32
		c-3.21,4.49-7.06,7.71-12.04,10.1c-27,12.97-53.92,26.1-80.81,39.31c-6.21,3.05-12.23,4.13-18.24,0
		c-5.99-4.13-7.4-10.07-6.48-16.99c4.17-31.58,8.17-63.18,12.45-94.76c0.38-2.8,1.91-5.68,3.6-8.03
		c65.3-91.1,130.63-182.19,196.11-273.17c17.63-24.5,49.97-29.67,74.78-12.46c4.65,3.22,9.27,6.47,13.8,9.86
		c23.24,17.43,28.62,49.48,12.33,73.53c-3.76,5.55-7.77,10.94-11.9,16.75c2.2,1.56,4.1,2.88,5.97,4.25
		c20.1,14.77,25.05,41.92,10.7,62.33c-19.95,28.38-40.36,56.45-60.67,84.57c-5.6,7.76-15.22,9.29-22.37,3.95
		c-7.14-5.33-8.45-14.77-2.85-22.58c18.93-26.41,37.64-53,57.09-79.03C787,541.11,784.5,532.07,771.95,525.51z M593.48,719.41
		c1.27-1.64,2.25-2.84,3.16-4.09c42.52-59.15,85.03-118.3,127.56-177.46c17.04-23.71,34.15-47.39,51.12-71.15
		c8.38-11.72,6.26-24.5-5.26-33.02c-3.03-2.24-6.09-4.44-9.14-6.65c-13.87-10.05-25.97-8.12-35.96,5.76
		c-54.98,76.49-109.96,152.98-164.93,229.47c-5.12,7.12-10.21,14.26-15.54,21.72C565.14,689.87,581.3,701.38,593.48,719.41z
		 M523.62,765.01c16.12-7.84,31.26-15.21,46.69-22.71c-8.63-16.25-21.6-25.76-39.93-28.84
		C528.13,730.66,525.94,747.34,523.62,765.01z"/>
	<path class="st0" d="M507.73,434.2c25.59,0,51.18-0.08,76.76,0.04c11.8,0.06,19.25,9.92,15.8,20.56
		c-2.16,6.68-8.1,10.76-15.97,10.77c-32.81,0.03-65.62,0.02-98.42,0.01c-18.68,0-37.36,0.08-56.04-0.05
		c-7.87-0.05-13.96-5.32-15.32-12.72c-1.35-7.38,2.24-14.6,9.1-17.25c2.69-1.04,5.81-1.3,8.74-1.31
		C457.5,434.16,482.61,434.2,507.73,434.2z"/>
	<path class="st0" d="M483,552.13c-17.41,0-34.82,0.08-52.23-0.04c-8.63-0.06-14.81-5.12-16.22-12.83
		c-1.39-7.56,2.42-14.91,9.53-17.41c2.87-1.01,6.14-1.27,9.22-1.28c30.9-0.08,61.8-0.06,92.7-0.06c3.14,0,6.28-0.06,9.42,0.02
		c9.91,0.25,16.9,6.86,16.83,15.87c-0.06,9.01-7.13,15.64-17.01,15.69C517.81,552.2,500.41,552.13,483,552.13z"/>
	<path class="st0" d="M321.6,622.14c3.32-3.63,6.28-7.06,9.43-10.29c6.36-6.5,12.81-12.92,19.25-19.33
		c7.82-7.79,17.4-8.42,24.05-1.61c6.59,6.74,5.96,16.09-1.69,23.73c-12.96,12.99-25.96,25.94-38.94,38.91
		c-0.44,0.44-0.89,0.9-1.34,1.32c-7,6.49-15.81,6.5-22.69-0.19c-6.64-6.45-13.18-13-19.59-19.66c-6.57-6.82-6.55-16.5-0.17-22.71
		c6.26-6.1,15.56-5.93,22.37,0.51C315.23,615.56,318.01,618.51,321.6,622.14z"/>
	<path class="st0" d="M320.78,535.24c10.73-10.65,20.83-20.72,30.97-30.73c4.48-4.42,9.76-6.11,15.93-4.19
		c5.93,1.84,9.48,5.94,10.78,11.92c1.15,5.3-0.33,10.07-4.06,13.85c-14.1,14.3-28.23,28.56-42.55,42.63
		c-6.21,6.11-15.29,5.98-21.63-0.08c-7.03-6.72-13.89-13.62-20.59-20.66c-6.1-6.41-5.89-16.03,0.12-22.05
		c6.14-6.14,15.35-6.29,21.99-0.12C314.81,528.66,317.58,531.88,320.78,535.24z"/>
	<path class="st0" d="M321.01,448.76c10.57-10.53,20.65-20.6,30.77-30.66c4.51-4.49,9.97-5.96,15.99-4.14
		c5.87,1.77,9.47,5.98,10.71,12.01c1.08,5.3-0.41,10.03-4.17,13.83c-14,14.17-27.98,28.35-42.19,42.31
		c-6.62,6.5-15.68,6.24-22.33-0.25c-6.63-6.46-13.18-13-19.62-19.63c-6.59-6.79-6.66-16.54-0.38-22.75
		c6.31-6.23,15.87-5.98,22.73,0.69C315.34,442.89,318.04,445.73,321.01,448.76z"/>
	<path class="st0" d="M454.47,638.63c-7.69,0-15.38,0.08-23.07-0.03c-10.35-0.15-17.36-6.72-17.21-15.95
		c0.15-9.24,7.23-15.57,17.59-15.6c15.54-0.05,31.08-0.08,46.62,0.03c7.35,0.05,13.11,4.13,15.33,10.4
		c2.22,6.29,0.61,13.66-4.88,17.3c-3.2,2.12-7.42,3.07-11.31,3.69c-3.83,0.61-7.83,0.14-11.75,0.14
		C462,638.64,458.24,638.64,454.47,638.63z"/>
</g>
</svg>
