<?xml version="1.0" encoding="utf-8"?>
<!-- Generator: Adobe Illustrator 23.0.1, SVG Export Plug-In . SVG Version: 6.00 Build 0)  -->
<svg version="1.1" id="Layer_1" xmlns="http://www.w3.org/2000/svg" xmlns:xlink="http://www.w3.org/1999/xlink" x="0px" y="0px"
	 viewBox="0 0 1000 1000" style="enable-background:new 0 0 1000 1000;" xml:space="preserve">
<style type="text/css">
	.st0{fill:#1ED567;}
</style>
<g>
	<path class="st0" d="M362.49,312.91c44.63-1.75,115.26-13,164.01-61.76c14.63-14.63,14.63-38.38,0-53
		c-14.88-14.13-38.25-14.13-53,0c-48.5,48.38-143.51,39.25-144.39,39.13c-20.63-2.25-39.13,12.63-41.38,33.13
		c-0.12,1.5-0.25,2.75-0.25,4.13V530.3c-14.13,0.75-28,3.25-41.5,7.5c-40.13,13.5-58.5,41.63-58.5,62.01
		c0,41.5,25.25,62.51,75.01,62.51c48.13,0,100.01-33.5,100.01-87.51V312.91z M337.49,300.66V574.8c0,42.63-44.75,62.51-75.01,62.51
		c-44,0-50-18-50-37.5c0-8,10.13-27.75,41.5-38.13c13.63-4.38,27.88-6.5,42.13-6.5c1.13,0,2.38,0,3.5,0
		c3.38,0.12,6.75-1.13,9.13-3.5c2.38-2.38,3.75-5.63,3.75-9V274.53c0-6.88,5.63-12.5,12.5-12.5c0.5,0,1,0,1.38,0.13
		c1.13,0.12,107.38,11,164.76-46.5c5-4.75,12.75-4.75,17.63,0l0,0c4.88,4.88,4.88,12.75,0,17.63l0,0
		c-47.25,47.25-119.88,54.63-158.89,54.75C343.11,288.15,337.49,293.78,337.49,300.66z"/>
	<path class="st0" d="M796.52,268.9L796.52,268.9c-10-7-22.88-8.75-34.38-4.5L487.12,364.41c-14.75,5.38-24.63,19.5-24.63,35.25
		v280.77c-14.13,0.75-28,3.25-41.5,7.5c-40.13,13.5-58.5,41.5-58.5,62.01c0,41.5,25.25,62.51,75.01,62.51
		c48.13,0,100.01-33.5,100.01-87.51V425.92l200.02-72.76v227.27c-14.13,0.75-28,3.25-41.5,7.5c-40.13,13.38-58.5,41.5-58.5,61.88
		c0,41.5,25.25,62.51,75.01,62.51c48.13,0,100.01-33.5,100.01-87.51V299.66C812.53,287.4,806.53,275.9,796.52,268.9z M712.52,687.31
		c-44,0-50-18-50-37.5c0-8,10.13-27.75,41.5-38.13c14.75-4.63,30.25-6.88,45.75-6.5c3.38,0.25,6.75-1,9.13-3.5
		c2.38-2.38,3.75-5.63,3.75-9v-257.4c0-6.88-5.63-12.5-12.5-12.5c-1.5,0-2.88,0.25-4.25,0.75l-225.02,81.88
		c-5,1.75-8.25,6.5-8.25,11.75v307.78c0,42.63-44.75,62.51-75.01,62.51c-44,0-50-18-50-37.5c0-8,10.13-27.75,41.5-38.13
		c13.63-4.38,27.88-6.5,42.13-6.5c1.13,0,2.38,0,3.5,0c3.38,0.25,6.75-1.13,9.13-3.5s3.75-5.63,3.75-9V399.66
		c0-5.25,3.25-10,8.25-11.75L770.9,287.78c6.5-2.38,13.63,1,16,7.5c0.5,1.38,0.75,2.88,0.75,4.25v325.28
		C787.52,667.44,742.77,687.31,712.52,687.31z"/>
</g>
</svg>
