<?xml version="1.0" encoding="utf-8"?>
<!-- Generator: Adobe Illustrator 23.0.1, SVG Export Plug-In . SVG Version: 6.00 Build 0)  -->
<svg version="1.1" id="Layer_1" xmlns="http://www.w3.org/2000/svg" xmlns:xlink="http://www.w3.org/1999/xlink" x="0px" y="0px"
	 viewBox="0 0 64 80" style="enable-background:new 0 0 64 80;" xml:space="preserve">
<style type="text/css">
	.st0{fill:#1ED567;}
</style>
<title>School</title>
<g>
	<path class="st0" d="M21,17.04c3.57-0.14,9.22-1.04,13.12-4.94c1.17-1.17,1.17-3.07,0-4.24c-1.19-1.13-3.06-1.13-4.24,0
		C26,11.73,18.4,11,18.33,10.99c-1.65-0.18-3.13,1.01-3.31,2.65C15.01,13.76,15,13.86,15,13.97v20.46c-1.13,0.06-2.24,0.26-3.32,0.6
		C8.47,36.11,7,38.36,7,39.99c0,3.32,2.02,5,6,5c3.85,0,8-2.68,8-7V17.04z M19,16.06v21.93c0,3.41-3.58,5-6,5c-3.52,0-4-1.44-4-3
		c0-0.64,0.81-2.22,3.32-3.05c1.09-0.35,2.23-0.52,3.37-0.52c0.09,0,0.19,0,0.28,0c0.27,0.01,0.54-0.09,0.73-0.28
		c0.19-0.19,0.3-0.45,0.3-0.72V13.97c0-0.55,0.45-1,1-1c0.04,0,0.08,0,0.11,0.01c0.09,0.01,8.59,0.88,13.18-3.72
		c0.4-0.38,1.02-0.38,1.41,0l0,0c0.39,0.39,0.39,1.02,0,1.41c0,0,0,0,0,0c-3.78,3.78-9.59,4.37-12.71,4.38
		C19.45,15.06,19,15.51,19,16.06z"/>
	<path class="st0" d="M55.72,13.52L55.72,13.52c-0.8-0.56-1.83-0.7-2.75-0.36l-22,8C29.79,21.59,29,22.72,29,23.98v22.46
		c-1.13,0.06-2.24,0.26-3.32,0.6C22.47,48.12,21,50.36,21,52c0,3.32,2.02,5,6,5c3.85,0,8-2.68,8-7V26.08l16-5.82v18.18
		c-1.13,0.06-2.24,0.26-3.32,0.6C44.47,40.11,43,42.36,43,43.99c0,3.32,2.02,5,6,5c3.85,0,8-2.68,8-7V15.98
		C57,15,56.52,14.08,55.72,13.52z M49,46.99c-3.52,0-4-1.44-4-3c0-0.64,0.81-2.22,3.32-3.05c1.18-0.37,2.42-0.55,3.66-0.52
		c0.27,0.02,0.54-0.08,0.73-0.28c0.19-0.19,0.3-0.45,0.3-0.72V18.83c0-0.55-0.45-1-1-1c-0.12,0-0.23,0.02-0.34,0.06l-18,6.55
		c-0.4,0.14-0.66,0.52-0.66,0.94V50c0,3.41-3.58,5-6,5c-3.52,0-4-1.44-4-3c0-0.64,0.81-2.22,3.32-3.05
		c1.09-0.35,2.23-0.52,3.37-0.52c0.09,0,0.19,0,0.28,0c0.27,0.02,0.54-0.09,0.73-0.28c0.19-0.19,0.3-0.45,0.3-0.72V23.98
		c0-0.42,0.26-0.8,0.66-0.94l22-8.01c0.52-0.19,1.09,0.08,1.28,0.6c0.04,0.11,0.06,0.23,0.06,0.34v26.02
		C55,45.4,51.42,46.99,49,46.99z"/>
</g>
</svg>
