<?xml version="1.0" encoding="utf-8"?>
<!-- Generator: Adobe Illustrator 23.0.1, SVG Export Plug-In . SVG Version: 6.00 Build 0)  -->
<svg version="1.1" id="Layer_1" xmlns="http://www.w3.org/2000/svg" xmlns:xlink="http://www.w3.org/1999/xlink" x="0px" y="0px"
	 viewBox="0 0 1000 1000" style="enable-background:new 0 0 1000 1000;" xml:space="preserve">
<style type="text/css">
	.st0{fill:#BB0200;}
</style>
<path class="st0" d="M447.14,534.51c0,100.89,0,201.78,0,303.08c-44.01,0-87.72,0-131.79,0c0-225.23,0-450.59,0-676.59
	c1.75,0,3.51,0,5.28,0c40.33,0,80.65,0.07,120.98-0.11c4.22-0.02,5.95,1.31,7.34,5.23c34.34,96.89,68.82,193.73,103.29,290.58
	c0.6,1.68,1.29,3.32,2.64,4.88c0-99.98,0-199.96,0-300.26c44.17,0,87.89,0,132.12,0c0,225.5,0,450.87,0,676.46
	c-43.47,0-87.42,0-131.08,0c-36.04-101.24-72.02-202.34-108-303.44C447.65,534.4,447.39,534.46,447.14,534.51z M652.25,812.73
	c-0.57-1.88-0.98-3.46-1.53-4.99c-73.24-205.75-146.5-411.5-219.68-617.27c-1.17-3.29-2.57-4.61-6.27-4.57
	c-23.16,0.2-46.33,0.1-69.49,0.11c-1.4,0-2.79,0.2-4.52,0.33c0.57,1.87,0.94,3.3,1.43,4.68c73.3,205.91,146.61,411.81,219.84,617.75
	c1.11,3.13,2.43,4.36,5.94,4.33c23.33-0.19,46.66-0.09,69.99-0.11C649.25,812.99,650.53,812.84,652.25,812.73z M341.02,234.16
	c-0.22,0.02-0.45,0.05-0.67,0.07c0,192.84,0,385.67,0,578.54c27.29,0,54.22,0,81.65,0c0-1.67,0-3.13,0-4.59
	c0-114.32,0.01-228.64-0.06-342.96c0-2.59-0.59-5.29-1.45-7.74c-15.49-43.75-31.06-87.47-46.62-131.19
	C362.93,295.57,351.97,264.86,341.02,234.16z M661.08,762.34c0.19,0,0.38,0,0.57,0c0-192.03,0-384.06,0-576.1
	c-27.29,0-54.22,0-81.64,0c0,1.69,0,3.14,0,4.6c0,113.32-0.01,226.65,0.06,339.97c0,2.59,0.53,5.3,1.4,7.75
	c11.81,33.41,23.71,66.78,35.6,100.16C631.73,679.93,646.4,721.14,661.08,762.34z"/>
</svg>
