<?xml version="1.0" encoding="utf-8"?>
<!-- Generator: Adobe Illustrator 23.0.1, SVG Export Plug-In . SVG Version: 6.00 Build 0)  -->
<svg version="1.1" id="Layer_1" xmlns="http://www.w3.org/2000/svg" xmlns:xlink="http://www.w3.org/1999/xlink" x="0px" y="0px"
	 viewBox="0 0 35 35.19" style="enable-background:new 0 0 35 35.19;" xml:space="preserve">
<style type="text/css">
	.st0{fill:#0049EE;}
</style>
<path class="st0" d="M22.88,21.85c0.25,0.24,0.49,0.47,0.73,0.7c0.71-0.33,0.74-0.33,1.33,0.26c3.22,3.22,6.45,6.45,9.67,9.67
	c0.53,0.53,0.53,0.81,0.01,1.34c-0.36,0.36-0.71,0.72-1.08,1.08c-0.41,0.4-0.74,0.4-1.15-0.01c-3.3-3.3-6.61-6.61-9.91-9.91
	c-0.39-0.39-0.41-0.58-0.13-1.14c-0.25-0.23-0.51-0.47-0.77-0.7c-5.77,4.84-14.11,3.78-18.59-1.72C-1.39,16.05-0.9,8.27,4.11,3.58
	c5.03-4.72,12.8-4.77,17.85-0.14C27.11,8.16,27.76,16.28,22.88,21.85z M13.08,23.16c5.58-0.01,10.08-4.51,10.08-10.07
	c0-5.54-4.53-10.05-10.07-10.04C7.55,3.05,3.04,7.57,3.05,13.12C3.06,18.64,7.58,23.17,13.08,23.16z"/>
</svg>
