<?xml version="1.0" encoding="utf-8"?>
<!-- Generator: Adobe Illustrator 23.0.1, SVG Export Plug-In . SVG Version: 6.00 Build 0)  -->
<svg version="1.1" id="Layer_1" xmlns="http://www.w3.org/2000/svg" xmlns:xlink="http://www.w3.org/1999/xlink" x="0px" y="0px"
	 viewBox="0 0 21.6 21.6" style="enable-background:new 0 0 21.6 21.6;" xml:space="preserve">
<style type="text/css">
	.st0{fill:#939393;}
</style>
<path class="st0" d="M21.6,12.6V9l-2.74-0.57c-0.17-0.58-0.4-1.13-0.69-1.66l1.54-2.34l-2.54-2.55l-2.34,1.54
	c-0.53-0.29-1.08-0.52-1.66-0.69L12.6,0H9L8.43,2.74C7.86,2.91,7.3,3.14,6.78,3.43L4.44,1.89L1.89,4.44l1.54,2.34
	C3.14,7.3,2.91,7.86,2.74,8.43L0,9v3.6l2.74,0.57c0.17,0.58,0.4,1.13,0.69,1.66l-1.54,2.34l2.54,2.55l2.34-1.54
	c0.53,0.29,1.08,0.52,1.66,0.69L9,21.6h3.6l0.57-2.74c0.58-0.17,1.13-0.4,1.66-0.69l2.34,1.54l2.55-2.54l-1.54-2.34
	c0.29-0.53,0.52-1.08,0.69-1.66L21.6,12.6z M10.8,7.08c2.05,0,3.72,1.67,3.72,3.72s-1.67,3.72-3.72,3.72s-3.72-1.67-3.72-3.72l0,0
	C7.08,8.75,8.75,7.08,10.8,7.08z"/>
</svg>
