<?xml version="1.0" encoding="utf-8"?>
<!-- Generator: Adobe Illustrator 23.0.1, SVG Export Plug-In . SVG Version: 6.00 Build 0)  -->
<svg version="1.1" id="Layer_1" xmlns="http://www.w3.org/2000/svg" xmlns:xlink="http://www.w3.org/1999/xlink" x="0px" y="0px"
	 viewBox="0 0 1000 1000" style="enable-background:new 0 0 1000 1000;" xml:space="preserve">
<style type="text/css">
	.st0{fill:#5ACB45;}
</style>
<path class="st0" d="M353.92,627.06c14.05-22.23,27.82-44,41.11-65.03c12.93,7.65,25.26,15.85,38.38,22.48
	c20.89,10.56,42.88,18.37,66.67,18.2c8.85-0.06,17.94-1.51,26.47-3.93c15.79-4.48,21.56-18.4,18.3-29.27
	c-1.37-4.57-5.01-9.09-8.8-12.18c-11.96-9.75-26.67-13.87-41.1-18.42c-19.15-6.04-38.62-11.22-57.37-18.3
	c-31.4-11.84-52.68-33.61-60.23-67.13c-11.13-49.43,12.14-96.01,58.48-117.87c25.09-11.83,51.56-15.65,79.04-14.74
	c44.14,1.47,84.91,12.81,120.32,40.26c0.77,0.6,1.45,1.31,2.45,2.21c-12.01,21.71-23.98,43.34-36.12,65.29
	c-13.82-10.07-28.66-18.05-44.54-24.04c-17.73-6.69-35.82-11.56-55.01-8.54c-5.68,0.89-11.57,2.07-16.69,4.52
	c-14.21,6.82-16.38,24.24-4.68,34.79c9.27,8.37,20.97,11.85,32.46,15.73c23.72,8,47.79,15.12,71.08,24.23
	c27.85,10.88,47.93,30.32,56.74,59.66c15.31,50.98-7.25,102.94-54.76,127.11c-20.63,10.5-42.65,15.36-65.57,17.17
	c-34.26,2.7-67.7-0.96-100.18-12.37C395.61,658.2,373.37,645.27,353.92,627.06z"/>
</svg>
