<?xml version="1.0" encoding="utf-8"?>
<!-- Generator: Adobe Illustrator 23.0.1, SVG Export Plug-In . SVG Version: 6.00 Build 0)  -->
<svg version="1.1" id="Layer_1" xmlns="http://www.w3.org/2000/svg" xmlns:xlink="http://www.w3.org/1999/xlink" x="0px" y="0px"
	 viewBox="0 0 1000 1000" style="enable-background:new 0 0 1000 1000;" xml:space="preserve">
<style type="text/css">
	.st0{fill:none;stroke:#2DC9FF;stroke-width:22;stroke-linecap:round;stroke-linejoin:round;stroke-miterlimit:10;}
</style>
<path class="st0" d="M494.01,393.81c-0.97-8.97-2.27-17.23-2.68-25.54c-1.71-34.31,7.81-65.37,28.72-92.57
	c23.82-30.99,55.37-49.61,94.19-54.36c45.16-5.54,84.54,7.82,117.4,39.49c2.94,2.84,5.32,3.72,9.37,2.82
	c28.79-6.45,55.97-16.94,81.52-31.67c0.74-0.43,1.52-0.79,2.8-1.46c-5.29,16.49-13.1,30.98-23.42,44.15
	c-10.33,13.17-22.7,24.1-36.75,33.29c13.7-1.28,27.1-3.8,40.16-7.78c12.93-3.94,25.67-8.54,38.67-12.91
	c-3.58,4.91-7.12,9.98-10.89,14.88c-16.44,21.37-35.53,40.06-57.25,56.03c-1.29,0.95-2.05,1.8-1.97,3.65
	c1.57,33.79-1.65,67.17-8.9,100.17c-11.25,51.16-31.06,98.8-60.2,142.33c-57.4,85.75-135.92,141.52-236.73,165.11
	c-29.51,6.9-59.48,10.04-89.8,10.43c-79.21,1-152.34-19.59-219.58-61.36c-0.68-0.42-1.37-0.84-2.03-1.3
	c-0.14-0.09-0.16-0.35-0.32-0.75c37.09,4.07,73.55,1.42,109.43-8.58c35.87-10,68.44-26.51,98.59-49.77
	c-39.5-1.75-72.52-16.18-99.41-44.05c-14.9-15.44-25.54-33.5-32.27-54.34c21.15,3.82,41.79,3.27,63.24-2.3
	c-33.59-7.62-60.78-24.13-81.77-50.33c-20.96-26.15-30.97-56.19-31.06-90.22c19.83,10.76,40.51,16.7,63.55,17.71
	c-30.63-21.78-50.6-50-58.73-85.96c-8.14-35.98-2.72-70.1,15.35-102.53C279.73,336.23,376.42,385.68,494.01,393.81z"/>
</svg>
