<?xml version="1.0" encoding="utf-8"?>
<!-- Generator: Adobe Illustrator 23.0.1, SVG Export Plug-In . SVG Version: 6.00 Build 0)  -->
<svg version="1.1" id="Layer_1" xmlns="http://www.w3.org/2000/svg" xmlns:xlink="http://www.w3.org/1999/xlink" x="0px" y="0px"
	 viewBox="0 0 325 316.25" style="enable-background:new 0 0 325 316.25;" xml:space="preserve">
<style type="text/css">
	.st0{fill:#4A03FF;}
	.st1{fill-rule:evenodd;clip-rule:evenodd;fill:#4A03FF;}
</style>
<path class="st0" d="M198,137c18,0,32,4,45,17c23,22,23,59,0,82c-10,10-25,17-41,17H58c-16,0-31-7-41-17c-21-21-23-53-5-76
	c6-8,14-14,23-18c-3-24,6-45,23-61c32-29,84-29,116,0C190,95,199,116,198,137z M183,151c3-24,2-42-18-60c-27-25-71-25-97,0
	c-20,17-23,37-18,60c-12,4-20,7-27,17c-14,18-11,43,4,58c8,8,19,13,31,13h144c13,0,24-5,32-13c17-17,17-46-1-63
	C218,149,201,151,183,151z"/>
<path class="st0" d="M279.96,180.96l10.58,10.58c2.5,2.5,2.61,6.52,0.24,9.15l-0.09,0.1c-2.55,2.83-6.95,2.95-9.64,0.25
	l-10.58-10.58c-2.46-2.46-2.61-6.39-0.35-9.03c0.03-0.03,0.06-0.07,0.09-0.1C272.73,178.4,277.22,178.22,279.96,180.96z"/>
<path class="st0" d="M303.5,111h15c3.59,0,6.5,2.91,6.5,6.5v0c0,3.59-2.91,6.5-6.5,6.5h-15c-3.59,0-6.5-2.91-6.5-6.5v0
	C297,113.91,299.91,111,303.5,111z"/>
<path class="st0" d="M271.22,45.03l11.17-10.64c2.56-2.44,6.61-2.39,9.11,0.11v0c2.5,2.5,2.55,6.55,0.11,9.11l-10.64,11.17
	c-2.55,2.68-6.8,2.67-9.4,0.04c-0.13-0.13-0.26-0.26-0.39-0.39C268.54,51.83,268.54,47.58,271.22,45.03z"/>
<path class="st0" d="M200,21V7c0-3.87,3.13-7,7-7l0,0c3.87,0,7,3.13,7,7v14c0,3.87-3.13,7-7,7l0,0C203.13,28,200,24.87,200,21z"/>
<path class="st0" d="M134,54l-9.94-9.94c-2.75-2.75-2.64-7.26,0.26-9.86l0,0c2.64-2.37,6.66-2.32,9.23,0.12L143.74,44
	c2.71,2.58,2.83,6.86,0.26,9.59c-0.08,0.09-0.16,0.17-0.25,0.26C141.14,56.66,136.71,56.71,134,54z"/>
<path class="st1" d="M207,42c42,0,76,34,76,76c0,24-12,45-29,59c-2-4-4-8-6-11c13-12,22-29,22-48c0-35-28-63-63-63c-18,0-35,8-47,21
	c-3-2-7-4-11-6C163,53,184,42,207,42z"/>
</svg>
