<?xml version="1.0" encoding="utf-8"?>
<!-- Generator: Adobe Illustrator 23.0.1, SVG Export Plug-In . SVG Version: 6.00 Build 0)  -->
<svg version="1.1" id="Layer_1" xmlns="http://www.w3.org/2000/svg" xmlns:xlink="http://www.w3.org/1999/xlink" x="0px" y="0px"
	 viewBox="0 0 1000 1000" style="enable-background:new 0 0 1000 1000;" xml:space="preserve">
<style type="text/css">
	.st0{fill:#4A03FF;}
	.st1{fill-rule:evenodd;clip-rule:evenodd;fill:#4A03FF;}
</style>
<path class="st0" d="M583.73,482.22c33.48,0,59.52,7.44,83.7,31.62c42.78,40.92,42.78,109.74,0,152.52
	c-18.6,18.6-46.5,31.62-76.26,31.62H323.33c-29.76,0-57.66-13.02-76.26-31.62c-39.06-39.06-42.78-98.58-9.3-141.36
	c11.16-14.88,26.04-26.04,42.78-33.48c-5.58-44.64,11.16-83.7,42.78-113.46c59.52-53.94,156.24-53.94,215.76,0
	C568.85,404.1,585.59,443.16,583.73,482.22z M555.83,508.26c5.58-44.64,3.72-78.12-33.48-111.6c-50.22-46.5-132.06-46.5-180.42,0
	c-37.2,31.62-42.78,68.82-33.48,111.6c-22.32,7.44-37.2,13.02-50.22,31.62c-26.04,33.48-20.46,79.98,7.44,107.88
	c14.88,14.88,35.34,24.18,57.66,24.18h267.84c24.18,0,44.64-9.3,59.52-24.18c31.62-31.62,31.62-85.56-1.86-117.18
	C620.93,504.54,589.31,508.26,555.83,508.26z"/>
<path class="st0" d="M736.17,563.98l19.68,19.68c4.65,4.65,4.85,12.13,0.45,17.02l-0.17,0.19c-4.74,5.26-12.93,5.49-17.93,0.46
	l-19.68-19.68c-4.58-4.58-4.85-11.89-0.65-16.8c0.06-0.06,0.11-0.13,0.17-0.19C722.72,559.22,731.07,558.88,736.17,563.98z"/>
<path class="st0" d="M779.95,433.86h27.9c6.68,0,12.09,5.41,12.09,12.09l0,0c0,6.68-5.41,12.09-12.09,12.09h-27.9
	c-6.68,0-12.09-5.41-12.09-12.09l0,0C767.86,439.27,773.28,433.86,779.95,433.86z"/>
<path class="st0" d="M719.91,311.16l20.78-19.79c4.76-4.54,12.29-4.45,16.94,0.2l0,0c4.65,4.65,4.74,12.18,0.2,16.94l-19.79,20.78
	c-4.74,4.98-12.65,4.97-17.48,0.07c-0.24-0.24-0.48-0.48-0.73-0.73C714.93,323.8,714.93,315.9,719.91,311.16z"/>
<path class="st0" d="M587.45,266.46v-26.04c0-7.2,5.82-13.02,13.02-13.02l0,0c7.2,0,13.02,5.82,13.02,13.02v26.04
	c0,7.2-5.82,13.02-13.02,13.02l0,0C593.27,279.48,587.45,273.66,587.45,266.46z"/>
<path class="st0" d="M464.69,327.84l-18.49-18.49c-5.11-5.11-4.91-13.5,0.48-18.34l0,0c4.91-4.41,12.39-4.32,17.17,0.22l18.95,18
	c5.04,4.8,5.26,12.76,0.48,17.84c-0.15,0.17-0.3,0.32-0.46,0.48C477.97,332.79,469.73,332.88,464.69,327.84z"/>
<path class="st1" d="M600.47,305.52c78.12,0,141.36,63.24,141.36,141.36c0,44.64-22.32,83.7-53.94,109.74
	c-3.72-7.44-7.44-14.88-11.16-20.46c24.18-22.32,40.92-53.94,40.92-89.28c0-65.1-52.08-117.18-117.18-117.18
	c-33.48,0-65.1,14.88-87.42,39.06c-5.58-3.72-13.02-7.44-20.46-11.16C518.63,325.98,557.69,305.52,600.47,305.52z"/>
</svg>
