<?xml version="1.0" encoding="utf-8"?>
<!-- Generator: Adobe Illustrator 23.0.1, SVG Export Plug-In . SVG Version: 6.00 Build 0)  -->
<svg version="1.1" id="Layer_1" xmlns="http://www.w3.org/2000/svg" xmlns:xlink="http://www.w3.org/1999/xlink" x="0px" y="0px"
	 viewBox="0 0 1000 1000" style="enable-background:new 0 0 1000 1000;" xml:space="preserve">
<style type="text/css">
	.st0{fill:#F70400;}
</style>
<path class="st0" d="M471.18,709.67c-70.12,0-140.24,0.08-210.36-0.03c-58.01-0.08-106.59-37.2-120.83-92.73
	c-2.5-9.73-3.8-20.03-3.84-30.07c-0.31-76.38-0.21-152.76-0.16-229.14c0.04-62.83,48.15-115.84,110.67-122.05
	c4.42-0.44,8.88-0.67,13.32-0.68c140.66-0.03,281.31-0.03,421.97-0.03c62.93,0,114.47,44.63,123.39,106.94
	c0.68,4.8,1.03,9.7,1.04,14.55c0.07,77.22,0.17,154.43,0.01,231.65c-0.13,60.14-46.92,112.85-106.55,120.29
	c-6.47,0.81-13.03,1.23-19.54,1.24C610.58,709.7,540.88,709.67,471.18,709.67z M471.18,264.69c-69.71,0-139.41,0.04-209.12-0.03
	c-13.8-0.02-27.26,1.78-39.79,7.68c-37.61,17.72-56.56,47.75-56.74,89.1c-0.32,72.21-0.09,144.42-0.08,216.64
	c0,3.48-0.03,6.96,0.13,10.44c2.21,51.29,42.46,91.27,92.7,91.33c141.92,0.18,283.84,0.15,425.76-0.14
	c9.43-0.02,19.15-1.91,28.21-4.67c33.44-10.19,64.98-43.29,64.72-92.34c-0.38-73.6-0.02-147.21-0.21-220.81
	c-0.03-8.28-0.71-16.76-2.59-24.81c-10.13-43.45-47.44-72.32-93.04-72.37C611.16,264.64,541.17,264.68,471.18,264.69z"/>
<path class="st0" d="M387.32,471.98c0-32.54-0.03-65.09,0.02-97.62c0.02-9.73,6.83-16.52,15.89-15.78c2.28,0.18,4.64,0.99,6.7,2.05
	c63.49,32.62,126.94,65.31,190.41,97.97c5.57,2.86,8.81,7.32,8.86,13.55c0.05,6.41-3.26,10.96-8.97,13.9
	c-63.35,32.58-126.68,65.22-190.04,97.78c-11.79,6.06-22.83-0.86-22.85-14.21C387.3,537.07,387.32,504.52,387.32,471.98z
	 M417.19,546.82c48.36-24.9,96.24-49.54,144.84-74.55c-48.66-25.05-96.5-49.67-144.84-74.54
	C417.19,447.7,417.19,496.87,417.19,546.82z"/>
</svg>
