<?xml version="1.0" encoding="utf-8"?>
<!-- Generator: Adobe Illustrator 23.0.1, SVG Export Plug-In . SVG Version: 6.00 Build 0)  -->
<svg version="1.1" id="Layer_1" xmlns="http://www.w3.org/2000/svg" xmlns:xlink="http://www.w3.org/1999/xlink" x="0px" y="0px"
	 viewBox="0 0 1000 1000" style="enable-background:new 0 0 1000 1000;" xml:space="preserve">
<style type="text/css">
	.st0{fill:#F70400;}
</style>
<path class="st0" d="M510.44,803.62c-83.99,0-167.98,0.09-251.97-0.03c-69.49-0.09-127.68-44.56-144.73-111.07
	c-2.99-11.65-4.55-23.99-4.6-36.02c-0.37-91.49-0.25-182.98-0.19-274.47c0.05-75.26,57.67-138.76,132.56-146.19
	c5.29-0.53,10.64-0.8,15.96-0.81c168.48-0.04,336.96-0.04,505.44-0.03c75.38,0,137.11,53.46,147.8,128.09
	c0.82,5.75,1.23,11.62,1.24,17.43c0.08,92.49,0.2,184.98,0.01,277.47c-0.15,72.04-56.2,135.17-127.63,144.08
	c-7.75,0.97-15.61,1.47-23.41,1.48C677.42,803.66,593.93,803.62,510.44,803.62z M510.45,270.62c-83.5,0-166.99,0.05-250.49-0.04
	c-16.53-0.02-32.65,2.13-47.66,9.2c-45.05,21.22-67.75,57.19-67.96,106.73c-0.38,86.49-0.11,172.99-0.1,259.49
	c0,4.17-0.03,8.34,0.15,12.5c2.65,61.43,50.86,109.32,111.04,109.4c169.99,0.21,339.99,0.18,509.98-0.17
	c11.29-0.02,22.94-2.29,33.79-5.59c40.05-12.2,77.83-51.85,77.52-110.61c-0.46-88.16-0.02-176.33-0.25-264.49
	c-0.03-9.92-0.85-20.08-3.1-29.72c-12.13-52.04-56.82-86.63-111.44-86.68C678.11,270.56,594.28,270.61,510.45,270.62z"/>
<path class="st0" d="M410,518.92c0-38.98-0.03-77.96,0.02-116.93c0.02-11.65,8.18-19.79,19.03-18.9c2.73,0.22,5.56,1.19,8.02,2.45
	c76.05,39.07,152.05,78.23,228.08,117.35c6.67,3.43,10.55,8.77,10.61,16.23c0.06,7.68-3.91,13.13-10.75,16.65
	c-75.88,39.03-151.74,78.12-227.63,117.12c-14.12,7.26-27.35-1.03-27.37-17.02C409.97,596.88,410,557.9,410,518.92z M445.77,608.56
	c57.93-29.82,115.28-59.34,173.49-89.3c-58.29-30-115.59-59.5-173.49-89.29C445.77,489.83,445.77,548.73,445.77,608.56z"/>
</svg>
