<?xml version="1.0" encoding="utf-8"?>
<!-- Generator: Adobe Illustrator 23.0.1, SVG Export Plug-In . SVG Version: 6.00 Build 0)  -->
<svg version="1.1" id="Layer_1" xmlns="http://www.w3.org/2000/svg" xmlns:xlink="http://www.w3.org/1999/xlink" x="0px" y="0px"
	 viewBox="0 0 325 325" style="enable-background:new 0 0 325 325;" xml:space="preserve">
<style type="text/css">
	.st0{fill:#02C5CA;}
</style>
<g>
	<path class="st0" d="M104.7,85.1c0-3.5-0.3-6.7,0.1-9.9c0.9-8.1,8.3-14,16.7-13.9c8,0.2,15,6.6,15.7,14.5c0.3,3,0,6,0,9.2
		c20.9,0,41.6,0,62.4,0c0-2.2-0.1-4.5,0-6.7c0.1-1.9,0.3-4,0.9-5.8c2.4-7.4,9.9-12.1,17.5-11.1c7.9,1,14,7.5,14.4,15.4
		c0.1,2.7,0,5.4,0,8.3c2.2,0,4.3-0.1,6.3,0c4,0.2,8.1,0,11.9,0.8c9.9,2.2,17.2,11.1,17.6,21.2c0.3,7.5,0.1,15.1,0.1,22.6
		c0.1,34.9,0.1,69.7,0.2,104.6c0,12.2-8.2,21.8-20.2,23.7c-1.1,0.2-2.3,0.2-3.5,0.2c-50.8,0-101.6,0-152.4,0
		c-12,0-21.5-7.9-23.6-19.6c-0.3-1.4-0.3-2.9-0.3-4.4c0-41.6,0-83.2,0-124.8c0-12.4,7.8-21.9,19.8-23.9c3.6-0.6,7.3-0.3,10.9-0.4
		C100.8,85.1,102.5,85.1,104.7,85.1z M78.2,130.8c0,0.7,0,1.3,0,1.9c0,16.5,0,32.9,0,49.4c0,17.3,0,34.7,0,52
		c0,4.1,1.3,7.6,4.3,10.4c2.9,2.8,6.5,3.7,10.4,3.7c19.1,0,38.3,0,57.4,0c31.2,0,62.4,0,93.5,0c8.8,0,14.5-5.7,14.5-14.5
		c0-33.6,0-67.3,0-101c0-0.6,0-1.3,0-2C198.3,130.8,138.4,130.8,78.2,130.8z M78.2,120.9c60.1,0,120,0,179.9,0c0-4.6,0.2-9,0-13.4
		c-0.3-5.9-5.1-11.4-10.8-12c-5-0.5-10.1-0.1-15.1-0.1c-1.6,9.9-9.3,14.3-15.9,14.5c-8.3,0.2-13.9-4.7-16.8-14.7
		c-20.7,0-41.5,0-62.2,0c-2.9,9.7-7.9,14.4-15.7,14.7c-3.5,0.1-6.8-0.8-9.8-2.7c-4.3-2.9-6.6-7-7.4-12c-4.6,0-9-0.2-13.5,0
		c-7,0.4-12.3,5.8-12.7,12.7c-0.2,3.6-0.1,7.3-0.1,10.9C78.2,119.5,78.2,120.1,78.2,120.9z M209.3,85.5c0,2.6,0,5.3,0,7.9
		c0.1,3.7,2.9,6.6,6.6,6.5c3.6,0,6.4-2.9,6.5-6.6c0-5.1,0-10.2,0-15.3c0-3.8-2.8-6.6-6.4-6.7c-3.7,0-6.6,2.8-6.6,6.6
		C209.3,80.4,209.3,82.9,209.3,85.5z M127.2,85.7c0-2.5,0-4.9,0-7.4c0-0.1,0-0.2,0-0.3c-0.1-3.8-2.8-6.6-6.4-6.7
		c-3.6,0-6.6,2.7-6.6,6.5c-0.1,5.2-0.1,10.4,0,15.6c0,3.7,3,6.5,6.6,6.5c3.6,0,6.4-2.9,6.4-6.6C127.2,90.7,127.2,88.2,127.2,85.7z"
		/>
	<path class="st0" d="M168.3,150.5c4.8,0,8,3.2,8,8.1c0,4.7-3.3,8-8,7.9c-4.8,0-8.1-3.3-8-8.1C160.3,153.7,163.5,150.5,168.3,150.5z
		"/>
	<path class="st0" d="M207,158.4c0,4.9-3.2,8.1-8,8.1c-4.8,0-8-3.2-8-8c0-4.9,3.2-8.1,8-8.1C203.9,150.5,207,153.6,207,158.4z"/>
	<path class="st0" d="M168.2,181.7c4.9,0,8.1,3.2,8.1,8c0,4.7-3.2,8-8,8c-4.8,0-8.1-3.3-8.1-8.1
		C160.3,184.9,163.5,181.7,168.2,181.7z"/>
	<path class="st0" d="M176.3,220.7c0,4.8-3.2,8-7.9,8c-4.8,0-8.1-3.2-8.1-8c0-4.8,3.3-8,8.1-8C173,212.7,176.3,216,176.3,220.7z"/>
	<path class="st0" d="M222,158.5c0-4.9,3.2-8,8.1-8c4.7,0,7.9,3.3,7.9,8.1c0,4.8-3.3,8-8.1,8C225.1,166.5,222,163.3,222,158.5z"/>
	<path class="st0" d="M207,189.6c0,4.9-3.2,8.2-8,8.2c-4.8,0-8.1-3.3-8-8.1c0-4.8,3.2-7.9,8-7.9C203.9,181.7,207,184.8,207,189.6z"
		/>
	<path class="st0" d="M222,189.8c0-4.8,3.1-8,7.9-8.1c4.9,0,8.1,3.1,8.1,7.9c0,4.8-3.2,8.1-8,8.1C225.2,197.8,222,194.5,222,189.8z"
		/>
	<path class="st0" d="M207,220.6c0,4.9-3.2,8.1-8,8.1c-4.8,0-8-3.3-8-8.1c0-4.8,3.2-7.9,8-7.9C203.8,212.7,207,215.9,207,220.6z"/>
	<path class="st0" d="M230,212.7c4.7,0,8,3.4,8,8.1c0,4.8-3.3,8-8.2,8c-4.7,0-7.9-3.3-7.8-8.1C222,215.8,225.2,212.7,230,212.7z"/>
	<path class="st0" d="M129.5,158.4c0-4.8,3.2-8,8-7.9c4.7,0,7.8,3.4,7.8,8.2c0,4.6-3.3,7.9-8,7.9
		C132.7,166.5,129.5,163.2,129.5,158.4z"/>
	<path class="st0" d="M106.8,181.7c4.6,0,7.8,3.2,7.9,7.9c0,4.7-3.3,8.1-7.9,8.1c-4.7,0-7.9-3.3-7.9-8.1
		C98.8,184.9,102,181.7,106.8,181.7z"/>
	<path class="st0" d="M129.5,189.7c0-4.8,3.2-8,8-7.9c4.7,0,7.8,3.3,7.8,8.1c0,4.6-3.3,7.9-7.9,7.9
		C132.8,197.8,129.5,194.4,129.5,189.7z"/>
	<path class="st0" d="M129.5,220.7c0-4.8,3.2-8,7.9-8c4.6,0,7.9,3.4,7.9,8.1c0,4.7-3.3,7.9-7.9,7.9
		C132.7,228.7,129.5,225.5,129.5,220.7z"/>
	<path class="st0" d="M106.8,150.5c4.7,0,7.9,3.4,7.9,8.1c-0.1,4.7-3.3,7.9-7.9,7.9c-4.7,0-7.9-3.3-7.9-8.1
		C98.8,153.7,102,150.5,106.8,150.5z"/>
	<path class="st0" d="M106.8,228.7c-4.7,0-8-3.2-8-8c0-4.8,3.2-8.1,7.9-8.1c4.6,0,8,3.4,7.9,8.1
		C114.6,225.4,111.4,228.7,106.8,228.7z"/>
</g>
</svg>
